<?xml version="1.0" encoding="utf-8"?>
<!-- Generator: Adobe Illustrator 18.1.1, SVG Export Plug-In . SVG Version: 6.00 Build 0)  -->
<svg version="1.1" id="Ebene_1" xmlns="http://www.w3.org/2000/svg" xmlns:xlink="http://www.w3.org/1999/xlink" x="0px" y="0px"
	 viewBox="0 0 841.9 595.3" enable-background="new 0 0 841.9 595.3" xml:space="preserve">
<text transform="matrix(1 0 0 1 73.5869 71.7238)" font-family="'Arial-BoldMT'" font-size="11.9996">ADDI </text>
<text transform="matrix(1 0 0 1 106.2856 71.7238)" font-family="'ArialMT'" font-size="11.9996">x2, 200</text>
<text transform="matrix(1 0 0 1 73.5869 86.1233)" font-family="'Arial-BoldMT'" font-size="11.9996">LD     </text>
<text transform="matrix(1 0 0 1 106.2856 86.1233)" font-family="'ArialMT'" font-size="11.9996">x1, 0(x2)</text>
<text transform="matrix(1 0 0 1 73.5869 100.5227)" font-family="'Arial-BoldMT'" font-size="11.9996">ADDI </text>
<text transform="matrix(1 0 0 1 106.2856 100.5227)" font-family="'ArialMT'" font-size="11.9996">x3, 10</text>
<text transform="matrix(1 0 0 1 73.5869 114.9226)" font-family="'Arial-BoldMT'" font-size="11.9996">ADD  </text>
<text transform="matrix(1 0 0 1 106.2856 114.9226)" font-family="'ArialMT'" font-size="11.9996">x4, x1, x3  </text>
<g>
	<rect x="325.2" y="75.9" fill="#7FBB48" stroke="#000000" stroke-miterlimit="10" width="31.5" height="14.4"/>
	<text transform="matrix(1 0 0 1 333.3423 85.2322)" font-family="'ArialMT'" font-size="7.9997">EX2</text>
</g>
<g>
	<g>
		<rect x="167.7" y="61.8" fill="#FCF8CE" stroke="#000000" stroke-miterlimit="10" width="31.5" height="14.4"/>
		<text transform="matrix(1 0 0 1 169.25 71.0896)" font-family="'ArialMT'" font-size="7.9997">PCGEN</text>
	</g>
	<g>
		<rect x="199.2" y="61.8" fill="#FECB37" stroke="#000000" stroke-miterlimit="10" width="31.5" height="14.4"/>
		<text transform="matrix(1 0 0 1 211.377 71.0891)" font-family="'ArialMT'" font-size="7.9997">IF</text>
	</g>
	<g>
		<rect x="230.7" y="61.8" fill="#52A3DB" stroke="#000000" stroke-miterlimit="10" width="31.5" height="14.4"/>
		<text transform="matrix(1 0 0 1 242.4375 71.8903)" font-family="'ArialMT'" font-size="7.9997">ID</text>
	</g>
	<g>
		<rect x="262" y="61.8" fill="#7FBB48" stroke="#000000" stroke-miterlimit="10" width="31.5" height="14.4"/>
		<text transform="matrix(1 0 0 1 270.1816 71.0891)" font-family="'ArialMT'" font-size="7.9997">EX1</text>
	</g>
	<g>
		<rect x="293.5" y="61.8" fill="#BDCCD4" stroke="#000000" stroke-miterlimit="10" width="31.5" height="14.4"/>
		<text transform="matrix(1 0 0 1 299.4727 71.0891)" font-family="'ArialMT'" font-size="7.9997">CMIT</text>
	</g>
</g>
<g>
	<line fill="none" x1="199.2" y1="42.8" x2="199.2" y2="314.8"/>
	<g>
		<line fill="none" stroke="#000000" stroke-width="0.5" stroke-miterlimit="10" x1="199.2" y1="42.8" x2="199.2" y2="45.3"/>
		
			<line fill="none" stroke="#000000" stroke-width="0.5" stroke-miterlimit="10" stroke-dasharray="5.0387,5.0387" x1="199.2" y1="50.3" x2="199.2" y2="309.8"/>
		<line fill="none" stroke="#000000" stroke-width="0.5" stroke-miterlimit="10" x1="199.2" y1="312.3" x2="199.2" y2="314.8"/>
	</g>
</g>
<g>
	<line fill="none" x1="513.9" y1="47.4" x2="513.9" y2="319.5"/>
	<g>
		<line fill="none" stroke="#000000" stroke-width="0.5" stroke-miterlimit="10" x1="513.9" y1="47.4" x2="513.9" y2="49.9"/>
		
			<line fill="none" stroke="#000000" stroke-width="0.5" stroke-miterlimit="10" stroke-dasharray="5.0387,5.0387" x1="513.9" y1="54.9" x2="513.9" y2="314.4"/>
		<line fill="none" stroke="#000000" stroke-width="0.5" stroke-miterlimit="10" x1="513.9" y1="317" x2="513.9" y2="319.5"/>
	</g>
</g>
<g>
	<line fill="none" x1="482.4" y1="47.4" x2="482.4" y2="319.5"/>
	<g>
		<line fill="none" stroke="#000000" stroke-width="0.5" stroke-miterlimit="10" x1="482.4" y1="47.4" x2="482.4" y2="49.9"/>
		
			<line fill="none" stroke="#000000" stroke-width="0.5" stroke-miterlimit="10" stroke-dasharray="5.0387,5.0387" x1="482.4" y1="54.9" x2="482.4" y2="314.4"/>
		<line fill="none" stroke="#000000" stroke-width="0.5" stroke-miterlimit="10" x1="482.4" y1="317" x2="482.4" y2="319.5"/>
	</g>
</g>
<g>
	<line fill="none" x1="450.9" y1="47.4" x2="450.9" y2="319.5"/>
	<g>
		<line fill="none" stroke="#000000" stroke-width="0.5" stroke-miterlimit="10" x1="450.9" y1="47.4" x2="450.9" y2="49.9"/>
		
			<line fill="none" stroke="#000000" stroke-width="0.5" stroke-miterlimit="10" stroke-dasharray="5.0387,5.0387" x1="450.9" y1="54.9" x2="450.9" y2="314.4"/>
		<line fill="none" stroke="#000000" stroke-width="0.5" stroke-miterlimit="10" x1="450.9" y1="317" x2="450.9" y2="319.5"/>
	</g>
</g>
<g>
	<line fill="none" x1="419.5" y1="47.4" x2="419.5" y2="319.5"/>
	<g>
		<line fill="none" stroke="#000000" stroke-width="0.5" stroke-miterlimit="10" x1="419.5" y1="47.4" x2="419.5" y2="49.9"/>
		
			<line fill="none" stroke="#000000" stroke-width="0.5" stroke-miterlimit="10" stroke-dasharray="5.0387,5.0387" x1="419.5" y1="54.9" x2="419.5" y2="314.4"/>
		<line fill="none" stroke="#000000" stroke-width="0.5" stroke-miterlimit="10" x1="419.5" y1="317" x2="419.5" y2="319.5"/>
	</g>
</g>
<g>
	<line fill="none" x1="388" y1="47.4" x2="388" y2="319.5"/>
	<g>
		<line fill="none" stroke="#000000" stroke-width="0.5" stroke-miterlimit="10" x1="388" y1="47.4" x2="388" y2="49.9"/>
		
			<line fill="none" stroke="#000000" stroke-width="0.5" stroke-miterlimit="10" stroke-dasharray="5.0387,5.0387" x1="388" y1="54.9" x2="388" y2="314.4"/>
		<line fill="none" stroke="#000000" stroke-width="0.5" stroke-miterlimit="10" x1="388" y1="317" x2="388" y2="319.5"/>
	</g>
</g>
<g>
	<line fill="none" x1="356.5" y1="47.4" x2="356.5" y2="319.5"/>
	<g>
		<line fill="none" stroke="#000000" stroke-width="0.5" stroke-miterlimit="10" x1="356.5" y1="47.4" x2="356.5" y2="49.9"/>
		
			<line fill="none" stroke="#000000" stroke-width="0.5" stroke-miterlimit="10" stroke-dasharray="5.0387,5.0387" x1="356.5" y1="54.9" x2="356.5" y2="314.4"/>
		<line fill="none" stroke="#000000" stroke-width="0.5" stroke-miterlimit="10" x1="356.5" y1="317" x2="356.5" y2="319.5"/>
	</g>
</g>
<g>
	<line fill="none" x1="325" y1="47.4" x2="325" y2="319.5"/>
	<g>
		<line fill="none" stroke="#000000" stroke-width="0.5" stroke-miterlimit="10" x1="325" y1="47.4" x2="325" y2="49.9"/>
		
			<line fill="none" stroke="#000000" stroke-width="0.5" stroke-miterlimit="10" stroke-dasharray="5.0387,5.0387" x1="325" y1="54.9" x2="325" y2="314.4"/>
		<line fill="none" stroke="#000000" stroke-width="0.5" stroke-miterlimit="10" x1="325" y1="317" x2="325" y2="319.5"/>
	</g>
</g>
<g>
	<line fill="none" x1="293.6" y1="47.4" x2="293.6" y2="319.5"/>
	<g>
		<line fill="none" stroke="#000000" stroke-width="0.5" stroke-miterlimit="10" x1="293.6" y1="47.4" x2="293.6" y2="49.9"/>
		
			<line fill="none" stroke="#000000" stroke-width="0.5" stroke-miterlimit="10" stroke-dasharray="5.0387,5.0387" x1="293.6" y1="54.9" x2="293.6" y2="314.4"/>
		<line fill="none" stroke="#000000" stroke-width="0.5" stroke-miterlimit="10" x1="293.6" y1="317" x2="293.6" y2="319.5"/>
	</g>
</g>
<g>
	<line fill="none" x1="262.1" y1="47.4" x2="262.1" y2="319.5"/>
	<g>
		<line fill="none" stroke="#000000" stroke-width="0.5" stroke-miterlimit="10" x1="262.1" y1="47.4" x2="262.1" y2="49.9"/>
		
			<line fill="none" stroke="#000000" stroke-width="0.5" stroke-miterlimit="10" stroke-dasharray="5.0387,5.0387" x1="262.1" y1="54.9" x2="262.1" y2="314.4"/>
		<line fill="none" stroke="#000000" stroke-width="0.5" stroke-miterlimit="10" x1="262.1" y1="317" x2="262.1" y2="319.5"/>
	</g>
</g>
<g>
	<line fill="none" x1="230.6" y1="47.4" x2="230.6" y2="319.5"/>
	<g>
		<line fill="none" stroke="#000000" stroke-width="0.5" stroke-miterlimit="10" x1="230.6" y1="47.4" x2="230.6" y2="49.9"/>
		
			<line fill="none" stroke="#000000" stroke-width="0.5" stroke-miterlimit="10" stroke-dasharray="5.0387,5.0387" x1="230.6" y1="54.9" x2="230.6" y2="314.4"/>
		<line fill="none" stroke="#000000" stroke-width="0.5" stroke-miterlimit="10" x1="230.6" y1="317" x2="230.6" y2="319.5"/>
	</g>
</g>
<g>
	<rect x="293.5" y="164.3" fill="#7FBB48" stroke="#000000" stroke-miterlimit="10" width="63" height="14.4"/>
	<text transform="matrix(1 0 0 1 317.4888 173.6374)" font-family="'ArialMT'" font-size="7.9997">EX1</text>
</g>
<text transform="matrix(1 0 0 1 538.5186 90.2898)" font-family="'Arial-ItalicMT'" font-size="9.9997">Two cycle memory access. The cache is </text>
<text transform="matrix(1 0 0 1 538.5186 102.2898)" font-family="'Arial-ItalicMT'" font-size="9.9997">physically indexed and virtually tagged.</text>
<text transform="matrix(1 0 0 1 538.5186 178.8156)" font-family="'Arial-ItalicMT'" font-size="9.9997">Multicycle memory access. Address translation</text>
<text transform="matrix(1 0 0 1 538.5186 190.8152)" font-family="'Arial-ItalicMT'" font-size="9.9997">is perforemd in the same cycle.</text>
<text transform="matrix(1 0 0 1 538.5186 261.1848)" font-family="'Arial-ItalicMT'" font-size="9.9997">Same as option one but the addressing of the </text>
<text transform="matrix(1 0 0 1 538.5186 273.1843)" font-family="'Arial-ItalicMT'" font-size="9.9997">cache needs to be delayed until the whole address</text>
<text transform="matrix(1 0 0 1 538.5186 285.1838)" font-family="'Arial-ItalicMT'" font-size="9.9997">has successfully been translated.</text>
<text transform="matrix(1 0 0 1 180.6938 46.7029)" fill="#808080" font-family="'ArialMT'" font-size="9.9997">1</text>
<text transform="matrix(1 0 0 1 211.998 46.7029)" fill="#808080" font-family="'ArialMT'" font-size="9.9997">2</text>
<text transform="matrix(1 0 0 1 243.5039 46.7029)" fill="#808080" font-family="'ArialMT'" font-size="9.9997">3</text>
<text transform="matrix(1 0 0 1 274.8086 46.7029)" fill="#808080" font-family="'ArialMT'" font-size="9.9997">4</text>
<text transform="matrix(1 0 0 1 306.7168 46.7029)" fill="#808080" font-family="'ArialMT'" font-size="9.9997">5</text>
<text transform="matrix(1 0 0 1 338.0215 46.7029)" fill="#808080" font-family="'ArialMT'" font-size="9.9997">6</text>
<text transform="matrix(1 0 0 1 369.3257 46.7029)" fill="#808080" font-family="'ArialMT'" font-size="9.9997">7</text>
<text transform="matrix(1 0 0 1 400.6304 46.7029)" fill="#808080" font-family="'ArialMT'" font-size="9.9997">8</text>
<text transform="matrix(1 0 0 1 432.5586 46.7029)" fill="#808080" font-family="'ArialMT'" font-size="9.9997">9</text>
<text transform="matrix(1 0 0 1 461.083 46.7029)" fill="#808080" font-family="'ArialMT'" font-size="9.9997">10</text>
<text transform="matrix(1 0 0 1 496.5762 46.7029)" fill="#808080" font-family="'ArialMT'" font-size="9.9997">11</text>
<text transform="matrix(1 0 0 1 73.5869 157.241)" font-family="'Arial-BoldMT'" font-size="11.9996">ADDI </text>
<text transform="matrix(1 0 0 1 106.2856 157.241)" font-family="'ArialMT'" font-size="11.9996">x2, 200</text>
<text transform="matrix(1 0 0 1 73.5869 171.6404)" font-family="'Arial-BoldMT'" font-size="11.9996">LD     </text>
<text transform="matrix(1 0 0 1 106.2856 171.6404)" font-family="'ArialMT'" font-size="11.9996">x1, 0(x2)</text>
<text transform="matrix(1 0 0 1 73.5869 186.0403)" font-family="'Arial-BoldMT'" font-size="11.9996">ADDI </text>
<text transform="matrix(1 0 0 1 106.2856 186.0403)" font-family="'ArialMT'" font-size="11.9996">x3, 10</text>
<text transform="matrix(1 0 0 1 73.5869 200.4397)" font-family="'Arial-BoldMT'" font-size="11.9996">ADD  </text>
<text transform="matrix(1 0 0 1 106.2856 200.4397)" font-family="'ArialMT'" font-size="11.9996">x4, x1, x3  </text>
<text transform="matrix(1 0 0 1 73.5869 242.5451)" font-family="'Arial-BoldMT'" font-size="11.9996">ADDI </text>
<text transform="matrix(1 0 0 1 106.2856 242.5451)" font-family="'ArialMT'" font-size="11.9996">x2, 200</text>
<text transform="matrix(1 0 0 1 73.5869 256.9445)" font-family="'Arial-BoldMT'" font-size="11.9996">LD     </text>
<text transform="matrix(1 0 0 1 106.2856 256.9445)" font-family="'ArialMT'" font-size="11.9996">x1, 0(x2)</text>
<text transform="matrix(1 0 0 1 73.5869 271.344)" font-family="'Arial-BoldMT'" font-size="11.9996">ADDI </text>
<text transform="matrix(1 0 0 1 106.2856 271.344)" font-family="'ArialMT'" font-size="11.9996">x3, 10</text>
<text transform="matrix(1 0 0 1 73.5869 285.7434)" font-family="'Arial-BoldMT'" font-size="11.9996">ADD  </text>
<text transform="matrix(1 0 0 1 106.2856 285.7434)" font-family="'ArialMT'" font-size="11.9996">x4, x1, x3  </text>
<g>
	<g>
		<rect x="199.1" y="75.9" fill="#FCF8CE" stroke="#000000" stroke-miterlimit="10" width="31.5" height="14.4"/>
		<text transform="matrix(1 0 0 1 200.6792 85.2322)" font-family="'ArialMT'" font-size="7.9997">PCGEN</text>
	</g>
	<g>
		<rect x="230.6" y="75.9" fill="#FECB37" stroke="#000000" stroke-miterlimit="10" width="31.5" height="14.4"/>
		<text transform="matrix(1 0 0 1 242.8062 85.2322)" font-family="'ArialMT'" font-size="7.9997">IF</text>
	</g>
	<g>
		<rect x="262.1" y="75.9" fill="#52A3DB" stroke="#000000" stroke-miterlimit="10" width="31.5" height="14.4"/>
		<text transform="matrix(1 0 0 1 273.8667 86.0329)" font-family="'ArialMT'" font-size="7.9997">ID</text>
	</g>
</g>
<g>
	<rect x="230.5" y="90.3" fill="#FCF8CE" stroke="#000000" stroke-miterlimit="10" width="31.5" height="14.4"/>
	<text transform="matrix(1 0 0 1 232.0361 99.6155)" font-family="'ArialMT'" font-size="7.9997">PCGEN</text>
</g>
<g>
	<rect x="262" y="90.3" fill="#FECB37" stroke="#000000" stroke-miterlimit="10" width="31.5" height="14.4"/>
	<text transform="matrix(1 0 0 1 274.1631 99.615)" font-family="'ArialMT'" font-size="7.9997">IF</text>
</g>
<g>
	<rect x="293.5" y="90.3" fill="#52A3DB" stroke="#000000" stroke-miterlimit="10" width="31.5" height="14.4"/>
	<text transform="matrix(1 0 0 1 305.2236 100.4162)" font-family="'ArialMT'" font-size="7.9997">ID</text>
</g>
<g>
	<rect x="262" y="104.7" fill="#FCF8CE" stroke="#000000" stroke-miterlimit="10" width="31.5" height="14.4"/>
	<text transform="matrix(1 0 0 1 263.4893 113.9983)" font-family="'ArialMT'" font-size="7.9997">PCGEN</text>
</g>
<g>
	<rect x="293.4" y="104.7" fill="#FECB37" stroke="#000000" stroke-miterlimit="10" width="31.5" height="14.4"/>
	<text transform="matrix(1 0 0 1 305.6162 113.9983)" font-family="'ArialMT'" font-size="7.9997">IF</text>
</g>
<g>
	<rect x="324.9" y="104.7" fill="#52A3DB" stroke="#000000" stroke-miterlimit="10" width="31.5" height="14.4"/>
	<text transform="matrix(1 0 0 1 336.6768 114.7995)" font-family="'ArialMT'" font-size="7.9997">ID</text>
</g>
<g>
	<rect x="356.5" y="75.9" fill="#BDCCD4" stroke="#000000" stroke-miterlimit="10" width="31.5" height="14.4"/>
	<text transform="matrix(1 0 0 1 362.4316 85.2322)" font-family="'ArialMT'" font-size="7.9997">CMIT</text>
</g>
<g>
	<rect x="388" y="90.3" fill="#BDCCD4" stroke="#000000" stroke-miterlimit="10" width="31.5" height="14.4"/>
	<text transform="matrix(1 0 0 1 393.9575 99.615)" font-family="'ArialMT'" font-size="7.9997">CMIT</text>
</g>
<g>
	<rect x="419.6" y="104.7" fill="#BDCCD4" stroke="#000000" stroke-miterlimit="10" width="31.5" height="14.4"/>
	<text transform="matrix(1 0 0 1 425.5645 113.9983)" font-family="'ArialMT'" font-size="7.9997">CMIT</text>
</g>
<g>
	<rect x="293.4" y="75.9" fill="#7FBB48" stroke="#000000" stroke-miterlimit="10" width="31.5" height="14.4"/>
	<text transform="matrix(1 0 0 1 301.6104 85.2322)" font-family="'ArialMT'" font-size="7.9997">EX1</text>
</g>
<g>
	<rect x="325" y="90.3" fill="#7FBB48" stroke="#000000" stroke-miterlimit="10" width="31.5" height="14.4"/>
	<text transform="matrix(1 0 0 1 333.1406 99.615)" font-family="'ArialMT'" font-size="7.9997">EX1</text>
</g>
<g>
	<rect x="356.5" y="104.7" fill="#7FBB48" stroke="#000000" stroke-miterlimit="10" width="31.5" height="14.4"/>
	<text transform="matrix(1 0 0 1 364.6465 113.9983)" font-family="'ArialMT'" font-size="7.9997">EX1</text>
</g>
<g>
	<g>
		<rect x="167.7" y="150.2" fill="#FCF8CE" stroke="#000000" stroke-miterlimit="10" width="31.5" height="14.4"/>
		<text transform="matrix(1 0 0 1 169.2759 159.4948)" font-family="'ArialMT'" font-size="7.9997">PCGEN</text>
	</g>
	<g>
		<rect x="199.2" y="150.2" fill="#FECB37" stroke="#000000" stroke-miterlimit="10" width="31.5" height="14.4"/>
		<text transform="matrix(1 0 0 1 211.4033 159.4948)" font-family="'ArialMT'" font-size="7.9997">IF</text>
	</g>
	<g>
		<rect x="230.7" y="150.2" fill="#52A3DB" stroke="#000000" stroke-miterlimit="10" width="31.5" height="14.4"/>
		<text transform="matrix(1 0 0 1 242.4639 160.2956)" font-family="'ArialMT'" font-size="7.9997">ID</text>
	</g>
	<g>
		<rect x="262" y="150.2" fill="#7FBB48" stroke="#000000" stroke-miterlimit="10" width="31.5" height="14.4"/>
		<text transform="matrix(1 0 0 1 270.2075 159.4948)" font-family="'ArialMT'" font-size="7.9997">EX1</text>
	</g>
	<g>
		<rect x="293.5" y="150.2" fill="#BDCCD4" stroke="#000000" stroke-miterlimit="10" width="31.5" height="14.4"/>
		<text transform="matrix(1 0 0 1 299.4985 159.4948)" font-family="'ArialMT'" font-size="7.9997">CMIT</text>
	</g>
</g>
<g>
	<g>
		<rect x="199.2" y="164.3" fill="#FCF8CE" stroke="#000000" stroke-miterlimit="10" width="31.5" height="14.4"/>
		<text transform="matrix(1 0 0 1 200.7051 173.6374)" font-family="'ArialMT'" font-size="7.9997">PCGEN</text>
	</g>
	<g>
		<rect x="230.6" y="164.3" fill="#FECB37" stroke="#000000" stroke-miterlimit="10" width="31.5" height="14.4"/>
		<text transform="matrix(1 0 0 1 242.8325 173.6374)" font-family="'ArialMT'" font-size="7.9997">IF</text>
	</g>
	<g>
		<rect x="262.1" y="164.3" fill="#52A3DB" stroke="#000000" stroke-miterlimit="10" width="31.5" height="14.4"/>
		<text transform="matrix(1 0 0 1 273.8926 174.4387)" font-family="'ArialMT'" font-size="7.9997">ID</text>
	</g>
</g>
<g>
	<rect x="230.5" y="178.7" fill="#FCF8CE" stroke="#000000" stroke-miterlimit="10" width="31.5" height="14.4"/>
	<text transform="matrix(1 0 0 1 232.062 188.0207)" font-family="'ArialMT'" font-size="7.9997">PCGEN</text>
</g>
<g>
	<rect x="262" y="178.7" fill="#FECB37" stroke="#000000" stroke-miterlimit="10" width="31.5" height="14.4"/>
	<text transform="matrix(1 0 0 1 274.1895 188.0202)" font-family="'ArialMT'" font-size="7.9997">IF</text>
</g>
<g>
	<rect x="293.5" y="178.7" fill="#52A3DB" stroke="#000000" stroke-miterlimit="10" width="31.5" height="14.4"/>
	<text transform="matrix(1 0 0 1 305.2495 188.8215)" font-family="'ArialMT'" font-size="7.9997">ID</text>
</g>
<g>
	<rect x="262" y="193.1" fill="#FCF8CE" stroke="#000000" stroke-miterlimit="10" width="31.5" height="14.4"/>
	<text transform="matrix(1 0 0 1 263.5151 202.404)" font-family="'ArialMT'" font-size="7.9997">PCGEN</text>
</g>
<g>
	<rect x="293.4" y="193.1" fill="#FECB37" stroke="#000000" stroke-miterlimit="10" width="31.5" height="14.4"/>
	<text transform="matrix(1 0 0 1 305.6426 202.4035)" font-family="'ArialMT'" font-size="7.9997">IF</text>
</g>
<g>
	<rect x="325" y="193.1" fill="#52A3DB" stroke="#000000" stroke-miterlimit="10" width="31.5" height="14.4"/>
	<text transform="matrix(1 0 0 1 336.7026 203.2048)" font-family="'ArialMT'" font-size="7.9997">ID</text>
</g>
<g>
	<rect x="325" y="178.7" fill="#7FBB48" stroke="#000000" stroke-miterlimit="10" width="31.5" height="14.4"/>
	<text transform="matrix(1 0 0 1 333.167 188.0202)" font-family="'ArialMT'" font-size="7.9997">EX1</text>
</g>
<g>
	<rect x="419.5" y="193.1" fill="#7FBB48" stroke="#000000" stroke-miterlimit="10" width="31.5" height="14.4"/>
	<text transform="matrix(1 0 0 1 427.6777 202.4035)" font-family="'ArialMT'" font-size="7.9997">EX1</text>
</g>
<g>
	<rect x="419.2" y="164.4" fill="#BDCCD4" stroke="#000000" stroke-miterlimit="10" width="31.5" height="14.4"/>
	<text transform="matrix(1 0 0 1 425.1416 173.758)" font-family="'ArialMT'" font-size="7.9997">CMIT</text>
</g>
<g>
	<rect x="450.9" y="178.7" fill="#BDCCD4" stroke="#000000" stroke-miterlimit="10" width="31.5" height="14.4"/>
	<text transform="matrix(1 0 0 1 456.8691 188.0202)" font-family="'ArialMT'" font-size="7.9997">CMIT</text>
</g>
<g>
	<rect x="482.4" y="193.1" fill="#BDCCD4" stroke="#000000" stroke-miterlimit="10" width="31.5" height="14.4"/>
	<text transform="matrix(1 0 0 1 488.375 202.4035)" font-family="'ArialMT'" font-size="7.9997">CMIT</text>
</g>
<g>
	<rect x="356.5" y="164.3" fill="#7FBB48" stroke="#000000" stroke-miterlimit="10" width="63" height="14.4"/>
	<text transform="matrix(1 0 0 1 380.4199 173.6374)" font-family="'ArialMT'" font-size="7.9997">EX2</text>
</g>
<g>
	<rect x="325.2" y="246.7" fill="#7FBB48" stroke="#000000" stroke-miterlimit="10" width="31.5" height="14.4"/>
	<text transform="matrix(1 0 0 1 333.4326 256.007)" font-family="'ArialMT'" font-size="7.9997">EX2</text>
</g>
<g>
	<g>
		<rect x="167.8" y="232.5" fill="#FCF8CE" stroke="#000000" stroke-miterlimit="10" width="31.5" height="14.4"/>
		<text transform="matrix(1 0 0 1 169.3408 241.864)" font-family="'ArialMT'" font-size="7.9997">PCGEN</text>
	</g>
	<g>
		<rect x="199.3" y="232.5" fill="#FECB37" stroke="#000000" stroke-miterlimit="10" width="31.5" height="14.4"/>
		<text transform="matrix(1 0 0 1 211.4678 241.864)" font-family="'ArialMT'" font-size="7.9997">IF</text>
	</g>
	<g>
		<rect x="230.8" y="232.5" fill="#52A3DB" stroke="#000000" stroke-miterlimit="10" width="31.5" height="14.4"/>
		<text transform="matrix(1 0 0 1 242.5283 242.6653)" font-family="'ArialMT'" font-size="7.9997">ID</text>
	</g>
	<g>
		<rect x="262.1" y="232.5" fill="#7FBB48" stroke="#000000" stroke-miterlimit="10" width="31.5" height="14.4"/>
		<text transform="matrix(1 0 0 1 270.272 241.864)" font-family="'ArialMT'" font-size="7.9997">EX1</text>
	</g>
	<g>
		<rect x="293.6" y="232.5" fill="#BDCCD4" stroke="#000000" stroke-miterlimit="10" width="31.5" height="14.4"/>
		<text transform="matrix(1 0 0 1 299.5635 241.864)" font-family="'ArialMT'" font-size="7.9997">CMIT</text>
	</g>
</g>
<g>
	<g>
		<rect x="199.2" y="246.7" fill="#FCF8CE" stroke="#000000" stroke-miterlimit="10" width="31.5" height="14.4"/>
		<text transform="matrix(1 0 0 1 200.77 256.007)" font-family="'ArialMT'" font-size="7.9997">PCGEN</text>
	</g>
	<g>
		<rect x="230.7" y="246.7" fill="#FECB37" stroke="#000000" stroke-miterlimit="10" width="31.5" height="14.4"/>
		<text transform="matrix(1 0 0 1 242.897 256.0066)" font-family="'ArialMT'" font-size="7.9997">IF</text>
	</g>
	<g>
		<rect x="262.2" y="246.7" fill="#52A3DB" stroke="#000000" stroke-miterlimit="10" width="31.5" height="14.4"/>
		<text transform="matrix(1 0 0 1 273.9575 256.8078)" font-family="'ArialMT'" font-size="7.9997">ID</text>
	</g>
</g>
<g>
	<rect x="230.6" y="261.1" fill="#FCF8CE" stroke="#000000" stroke-miterlimit="10" width="31.5" height="14.4"/>
	<text transform="matrix(1 0 0 1 232.127 270.3899)" font-family="'ArialMT'" font-size="7.9997">PCGEN</text>
</g>
<g>
	<rect x="262.1" y="261.1" fill="#FECB37" stroke="#000000" stroke-miterlimit="10" width="31.5" height="14.4"/>
	<text transform="matrix(1 0 0 1 274.2539 270.3899)" font-family="'ArialMT'" font-size="7.9997">IF</text>
</g>
<g>
	<rect x="293.6" y="261.1" fill="#52A3DB" stroke="#000000" stroke-miterlimit="10" width="31.5" height="14.4"/>
	<text transform="matrix(1 0 0 1 305.3145 271.1906)" font-family="'ArialMT'" font-size="7.9997">ID</text>
</g>
<g>
	<rect x="262.1" y="275.5" fill="#FCF8CE" stroke="#000000" stroke-miterlimit="10" width="31.5" height="14.4"/>
	<text transform="matrix(1 0 0 1 263.5801 284.7732)" font-family="'ArialMT'" font-size="7.9997">PCGEN</text>
</g>
<g>
	<rect x="293.5" y="275.5" fill="#FECB37" stroke="#000000" stroke-miterlimit="10" width="31.5" height="14.4"/>
	<text transform="matrix(1 0 0 1 305.707 284.7727)" font-family="'ArialMT'" font-size="7.9997">IF</text>
</g>
<g>
	<rect x="325" y="275.5" fill="#52A3DB" stroke="#000000" stroke-miterlimit="10" width="31.5" height="14.4"/>
	<text transform="matrix(1 0 0 1 336.7676 285.5739)" font-family="'ArialMT'" font-size="7.9997">ID</text>
</g>
<g>
	<rect x="388" y="246.7" fill="#BDCCD4" stroke="#000000" stroke-miterlimit="10" width="31.5" height="14.4"/>
	<text transform="matrix(1 0 0 1 393.998 256.0066)" font-family="'ArialMT'" font-size="7.9997">CMIT</text>
</g>
<g>
	<rect x="419.6" y="261.1" fill="#BDCCD4" stroke="#000000" stroke-miterlimit="10" width="31.5" height="14.4"/>
	<text transform="matrix(1 0 0 1 425.5234 270.3899)" font-family="'ArialMT'" font-size="7.9997">CMIT</text>
</g>
<g>
	<rect x="451.2" y="275.5" fill="#BDCCD4" stroke="#000000" stroke-miterlimit="10" width="31.5" height="14.4"/>
	<text transform="matrix(1 0 0 1 457.1309 284.7727)" font-family="'ArialMT'" font-size="7.9997">CMIT</text>
</g>
<g>
	<rect x="293.5" y="246.7" fill="#7FBB48" stroke="#000000" stroke-miterlimit="10" width="31.5" height="14.4"/>
	<text transform="matrix(1 0 0 1 301.7012 256.0066)" font-family="'ArialMT'" font-size="7.9997">EX1</text>
</g>
<g>
	<rect x="325" y="261.1" fill="#7FBB48" stroke="#000000" stroke-miterlimit="10" width="31.5" height="14.4"/>
	<text transform="matrix(1 0 0 1 333.2314 270.3899)" font-family="'ArialMT'" font-size="7.9997">EX1</text>
</g>
<g>
	<rect x="387.7" y="275.5" fill="#7FBB48" stroke="#000000" stroke-miterlimit="10" width="31.5" height="14.4"/>
	<text transform="matrix(1 0 0 1 395.8506 284.7727)" font-family="'ArialMT'" font-size="7.9997">EX1</text>
</g>
<g>
	<rect x="356.5" y="246.7" fill="#7FBB48" stroke="#000000" stroke-miterlimit="10" width="31.5" height="14.4"/>
	<text transform="matrix(1 0 0 1 364.6465 256.007)" font-family="'ArialMT'" font-size="7.9997">EX3</text>
</g>
</svg>
