<?xml version="1.0" encoding="utf-8"?>
<!-- Generator: Adobe Illustrator 18.1.1, SVG Export Plug-In . SVG Version: 6.00 Build 0)  -->
<svg version="1.1" id="Ebene_1" xmlns="http://www.w3.org/2000/svg" xmlns:xlink="http://www.w3.org/1999/xlink" x="0px" y="0px"
	 viewBox="0 0 717.9 595.3" enable-background="new 0 0 717.9 595.3" xml:space="preserve">
<text transform="matrix(1 0 0 1 11.5801 71.7261)"><tspan x="0" y="0" font-family="'Arial-BoldMT'" font-size="12">ADDI </tspan><tspan x="32.7" y="0" font-family="'ArialMT'" font-size="12">x2, 200</tspan><tspan x="0" y="14.4" font-family="'Arial-BoldMT'" font-size="12">LD     </tspan><tspan x="32.7" y="14.4" font-family="'ArialMT'" font-size="12">x1, 0(x2)</tspan><tspan x="0" y="28.8" font-family="'Arial-BoldMT'" font-size="12">ADDI </tspan><tspan x="32.7" y="28.8" font-family="'ArialMT'" font-size="12">x3, 10</tspan><tspan x="0" y="43.2" font-family="'Arial-BoldMT'" font-size="12">ADD  </tspan><tspan x="32.7" y="43.2" font-family="'ArialMT'" font-size="12">x4, x1, x3  </tspan></text>
<g>
	<rect x="263.2" y="75.9" fill="#7FBB48" stroke="#000000" stroke-miterlimit="10" width="31.5" height="14.4"/>
	<text transform="matrix(1 0 0 1 271.3442 85.235)" font-family="'ArialMT'" font-size="8">EX2</text>
</g>
<g>
	<g>
		<rect x="105.7" y="61.8" fill="#FCF8CE" stroke="#000000" stroke-miterlimit="10" width="31.5" height="14.4"/>
		<text transform="matrix(1 0 0 1 107.2465 71.0917)" font-family="'ArialMT'" font-size="8">PCGEN</text>
	</g>
	<g>
		<rect x="137.2" y="61.8" fill="#FECB37" stroke="#000000" stroke-miterlimit="10" width="31.5" height="14.4"/>
		<text transform="matrix(1 0 0 1 149.3751 71.0915)" font-family="'ArialMT'" font-size="8">IF</text>
	</g>
	<g>
		<rect x="168.7" y="61.8" fill="#52A3DB" stroke="#000000" stroke-miterlimit="10" width="31.5" height="14.4"/>
		<text transform="matrix(1 0 0 1 180.4366 71.8926)" font-family="'ArialMT'" font-size="8">ID</text>
	</g>
	<g>
		<rect x="200" y="61.8" fill="#7FBB48" stroke="#000000" stroke-miterlimit="10" width="31.5" height="14.4"/>
		<text transform="matrix(1 0 0 1 208.1815 71.0915)" font-family="'ArialMT'" font-size="8">EX1</text>
	</g>
	<g>
		<rect x="231.5" y="61.8" fill="#BDCCD4" stroke="#000000" stroke-miterlimit="10" width="31.5" height="14.4"/>
		<text transform="matrix(1 0 0 1 237.4734 71.0915)" font-family="'ArialMT'" font-size="8">CMIT</text>
	</g>
</g>
<g>
	<line fill="#808080" x1="137.2" y1="42.8" x2="137.2" y2="314.8"/>
	<g>
		<line fill="none" stroke="#000000" stroke-width="0.5" stroke-miterlimit="10" x1="137.2" y1="42.8" x2="137.2" y2="45.3"/>
		
			<line fill="none" stroke="#000000" stroke-width="0.5" stroke-miterlimit="10" stroke-dasharray="5.0387,5.0387" x1="137.2" y1="50.3" x2="137.2" y2="309.8"/>
		<line fill="none" stroke="#000000" stroke-width="0.5" stroke-miterlimit="10" x1="137.2" y1="312.3" x2="137.2" y2="314.8"/>
	</g>
</g>
<g>
	<line fill="#808080" x1="451.9" y1="47.4" x2="451.9" y2="319.5"/>
	<g>
		<line fill="none" stroke="#000000" stroke-width="0.5" stroke-miterlimit="10" x1="451.9" y1="47.4" x2="451.9" y2="49.9"/>
		
			<line fill="none" stroke="#000000" stroke-width="0.5" stroke-miterlimit="10" stroke-dasharray="5.0387,5.0387" x1="451.9" y1="54.9" x2="451.9" y2="314.4"/>
		<line fill="none" stroke="#000000" stroke-width="0.5" stroke-miterlimit="10" x1="451.9" y1="317" x2="451.9" y2="319.5"/>
	</g>
</g>
<g>
	<line fill="#808080" x1="420.4" y1="47.4" x2="420.4" y2="319.5"/>
	<g>
		<line fill="none" stroke="#000000" stroke-width="0.5" stroke-miterlimit="10" x1="420.4" y1="47.4" x2="420.4" y2="49.9"/>
		
			<line fill="none" stroke="#000000" stroke-width="0.5" stroke-miterlimit="10" stroke-dasharray="5.0387,5.0387" x1="420.4" y1="54.9" x2="420.4" y2="314.4"/>
		<line fill="none" stroke="#000000" stroke-width="0.5" stroke-miterlimit="10" x1="420.4" y1="317" x2="420.4" y2="319.5"/>
	</g>
</g>
<g>
	<line fill="#808080" x1="388.9" y1="47.4" x2="388.9" y2="319.5"/>
	<g>
		<line fill="none" stroke="#000000" stroke-width="0.5" stroke-miterlimit="10" x1="388.9" y1="47.4" x2="388.9" y2="49.9"/>
		
			<line fill="none" stroke="#000000" stroke-width="0.5" stroke-miterlimit="10" stroke-dasharray="5.0387,5.0387" x1="388.9" y1="54.9" x2="388.9" y2="314.4"/>
		<line fill="none" stroke="#000000" stroke-width="0.5" stroke-miterlimit="10" x1="388.9" y1="317" x2="388.9" y2="319.5"/>
	</g>
</g>
<g>
	<line fill="#808080" x1="357.5" y1="47.4" x2="357.5" y2="319.5"/>
	<g>
		<line fill="none" stroke="#000000" stroke-width="0.5" stroke-miterlimit="10" x1="357.5" y1="47.4" x2="357.5" y2="49.9"/>
		
			<line fill="none" stroke="#000000" stroke-width="0.5" stroke-miterlimit="10" stroke-dasharray="5.0387,5.0387" x1="357.5" y1="54.9" x2="357.5" y2="314.4"/>
		<line fill="none" stroke="#000000" stroke-width="0.5" stroke-miterlimit="10" x1="357.5" y1="317" x2="357.5" y2="319.5"/>
	</g>
</g>
<g>
	<line fill="#808080" x1="326" y1="47.4" x2="326" y2="319.5"/>
	<g>
		<line fill="none" stroke="#000000" stroke-width="0.5" stroke-miterlimit="10" x1="326" y1="47.4" x2="326" y2="49.9"/>
		
			<line fill="none" stroke="#000000" stroke-width="0.5" stroke-miterlimit="10" stroke-dasharray="5.0387,5.0387" x1="326" y1="54.9" x2="326" y2="314.4"/>
		<line fill="none" stroke="#000000" stroke-width="0.5" stroke-miterlimit="10" x1="326" y1="317" x2="326" y2="319.5"/>
	</g>
</g>
<g>
	<line fill="#808080" x1="294.5" y1="47.4" x2="294.5" y2="319.5"/>
	<g>
		<line fill="none" stroke="#000000" stroke-width="0.5" stroke-miterlimit="10" x1="294.5" y1="47.4" x2="294.5" y2="49.9"/>
		
			<line fill="none" stroke="#000000" stroke-width="0.5" stroke-miterlimit="10" stroke-dasharray="5.0387,5.0387" x1="294.5" y1="54.9" x2="294.5" y2="314.4"/>
		<line fill="none" stroke="#000000" stroke-width="0.5" stroke-miterlimit="10" x1="294.5" y1="317" x2="294.5" y2="319.5"/>
	</g>
</g>
<g>
	<line fill="#808080" x1="263" y1="47.4" x2="263" y2="319.5"/>
	<g>
		<line fill="none" stroke="#000000" stroke-width="0.5" stroke-miterlimit="10" x1="263" y1="47.4" x2="263" y2="49.9"/>
		
			<line fill="none" stroke="#000000" stroke-width="0.5" stroke-miterlimit="10" stroke-dasharray="5.0387,5.0387" x1="263" y1="54.9" x2="263" y2="314.4"/>
		<line fill="none" stroke="#000000" stroke-width="0.5" stroke-miterlimit="10" x1="263" y1="317" x2="263" y2="319.5"/>
	</g>
</g>
<g>
	<line fill="#808080" x1="231.6" y1="47.4" x2="231.6" y2="319.5"/>
	<g>
		<line fill="none" stroke="#000000" stroke-width="0.5" stroke-miterlimit="10" x1="231.6" y1="47.4" x2="231.6" y2="49.9"/>
		
			<line fill="none" stroke="#000000" stroke-width="0.5" stroke-miterlimit="10" stroke-dasharray="5.0387,5.0387" x1="231.6" y1="54.9" x2="231.6" y2="314.4"/>
		<line fill="none" stroke="#000000" stroke-width="0.5" stroke-miterlimit="10" x1="231.6" y1="317" x2="231.6" y2="319.5"/>
	</g>
</g>
<g>
	<line fill="#808080" x1="200.1" y1="47.4" x2="200.1" y2="319.5"/>
	<g>
		<line fill="none" stroke="#000000" stroke-width="0.5" stroke-miterlimit="10" x1="200.1" y1="47.4" x2="200.1" y2="49.9"/>
		
			<line fill="none" stroke="#000000" stroke-width="0.5" stroke-miterlimit="10" stroke-dasharray="5.0387,5.0387" x1="200.1" y1="54.9" x2="200.1" y2="314.4"/>
		<line fill="none" stroke="#000000" stroke-width="0.5" stroke-miterlimit="10" x1="200.1" y1="317" x2="200.1" y2="319.5"/>
	</g>
</g>
<g>
	<line fill="#808080" x1="168.6" y1="47.4" x2="168.6" y2="319.5"/>
	<g>
		<line fill="none" stroke="#000000" stroke-width="0.5" stroke-miterlimit="10" x1="168.6" y1="47.4" x2="168.6" y2="49.9"/>
		
			<line fill="none" stroke="#000000" stroke-width="0.5" stroke-miterlimit="10" stroke-dasharray="5.0387,5.0387" x1="168.6" y1="54.9" x2="168.6" y2="314.4"/>
		<line fill="none" stroke="#000000" stroke-width="0.5" stroke-miterlimit="10" x1="168.6" y1="317" x2="168.6" y2="319.5"/>
	</g>
</g>
<g>
	<rect x="231.5" y="164.3" fill="#7FBB48" stroke="#000000" stroke-miterlimit="10" width="63" height="14.4"/>
	<text transform="matrix(1 0 0 1 255.4902 173.6433)" font-family="'ArialMT'" font-size="8">EX1</text>
</g>
<text transform="matrix(1 0 0 1 476.5278 90.2928)"><tspan x="0" y="0" font-family="'Arial-ItalicMT'" font-size="10">Two cycle memory access. The cache is </tspan><tspan x="0" y="12" font-family="'Arial-ItalicMT'" font-size="10">physically indexed and virtually tagged.</tspan></text>
<text transform="matrix(1 0 0 1 476.5278 178.8213)"><tspan x="0" y="0" font-family="'Arial-ItalicMT'" font-size="10">Multicycle memory access. Address translation</tspan><tspan x="0" y="12" font-family="'Arial-ItalicMT'" font-size="10">is perforemd in the same cycle.</tspan></text>
<text transform="matrix(1 0 0 1 476.5278 261.1934)"><tspan x="0" y="0" font-family="'Arial-ItalicMT'" font-size="10">Same as option one but the addressing of the </tspan><tspan x="0" y="12" font-family="'Arial-ItalicMT'" font-size="10">cache needs to be delayed until the whole address</tspan><tspan x="0" y="24" font-family="'Arial-ItalicMT'" font-size="10">has successfully been translated.</tspan></text>
<text transform="matrix(1 0 0 1 118.6906 46.7042)" fill="#808080" font-family="'ArialMT'" font-size="10">1</text>
<text transform="matrix(1 0 0 1 149.9962 46.7042)" fill="#808080" font-family="'ArialMT'" font-size="10">2</text>
<text transform="matrix(1 0 0 1 181.503 46.7042)" fill="#808080" font-family="'ArialMT'" font-size="10">3</text>
<text transform="matrix(1 0 0 1 212.8086 46.7042)" fill="#808080" font-family="'ArialMT'" font-size="10">4</text>
<text transform="matrix(1 0 0 1 244.718 46.7042)" fill="#808080" font-family="'ArialMT'" font-size="10">5</text>
<text transform="matrix(1 0 0 1 276.0237 46.7042)" fill="#808080" font-family="'ArialMT'" font-size="10">6</text>
<text transform="matrix(1 0 0 1 307.329 46.7042)" fill="#808080" font-family="'ArialMT'" font-size="10">7</text>
<text transform="matrix(1 0 0 1 338.6346 46.7042)" fill="#808080" font-family="'ArialMT'" font-size="10">8</text>
<text transform="matrix(1 0 0 1 370.5642 46.7042)" fill="#808080" font-family="'ArialMT'" font-size="10">9</text>
<text transform="matrix(1 0 0 1 399.089 46.7042)" fill="#808080" font-family="'ArialMT'" font-size="10">10</text>
<text transform="matrix(1 0 0 1 434.5837 46.7041)" fill="#808080" font-family="'ArialMT'" font-size="10">11</text>
<text transform="matrix(1 0 0 1 11.5801 157.2462)"><tspan x="0" y="0" font-family="'Arial-BoldMT'" font-size="12">ADDI </tspan><tspan x="32.7" y="0" font-family="'ArialMT'" font-size="12">x2, 200</tspan><tspan x="0" y="14.4" font-family="'Arial-BoldMT'" font-size="12">LD     </tspan><tspan x="32.7" y="14.4" font-family="'ArialMT'" font-size="12">x1, 0(x2)</tspan><tspan x="0" y="28.8" font-family="'Arial-BoldMT'" font-size="12">ADDI </tspan><tspan x="32.7" y="28.8" font-family="'ArialMT'" font-size="12">x3, 10</tspan><tspan x="0" y="43.2" font-family="'Arial-BoldMT'" font-size="12">ADD  </tspan><tspan x="32.7" y="43.2" font-family="'ArialMT'" font-size="12">x4, x1, x3  </tspan></text>
<text transform="matrix(1 0 0 1 11.5801 242.553)"><tspan x="0" y="0" font-family="'Arial-BoldMT'" font-size="12">ADDI </tspan><tspan x="32.7" y="0" font-family="'ArialMT'" font-size="12">x2, 200</tspan><tspan x="0" y="14.4" font-family="'Arial-BoldMT'" font-size="12">LD     </tspan><tspan x="32.7" y="14.4" font-family="'ArialMT'" font-size="12">x1, 0(x2)</tspan><tspan x="0" y="28.8" font-family="'Arial-BoldMT'" font-size="12">ADDI </tspan><tspan x="32.7" y="28.8" font-family="'ArialMT'" font-size="12">x3, 10</tspan><tspan x="0" y="43.2" font-family="'Arial-BoldMT'" font-size="12">ADD  </tspan><tspan x="32.7" y="43.2" font-family="'ArialMT'" font-size="12">x4, x1, x3  </tspan></text>
<g>
	<g>
		<rect x="137.1" y="75.9" fill="#FCF8CE" stroke="#000000" stroke-miterlimit="10" width="31.5" height="14.4"/>
		<text transform="matrix(1 0 0 1 138.6768 85.2349)" font-family="'ArialMT'" font-size="8">PCGEN</text>
	</g>
	<g>
		<rect x="168.6" y="75.9" fill="#FECB37" stroke="#000000" stroke-miterlimit="10" width="31.5" height="14.4"/>
		<text transform="matrix(1 0 0 1 180.8053 85.2347)" font-family="'ArialMT'" font-size="8">IF</text>
	</g>
	<g>
		<rect x="200.1" y="75.9" fill="#52A3DB" stroke="#000000" stroke-miterlimit="10" width="31.5" height="14.4"/>
		<text transform="matrix(1 0 0 1 211.8668 86.0358)" font-family="'ArialMT'" font-size="8">ID</text>
	</g>
</g>
<g>
	<rect x="168.5" y="90.3" fill="#FCF8CE" stroke="#000000" stroke-miterlimit="10" width="31.5" height="14.4"/>
	<text transform="matrix(1 0 0 1 170.0347 99.6185)" font-family="'ArialMT'" font-size="8">PCGEN</text>
</g>
<g>
	<rect x="200" y="90.3" fill="#FECB37" stroke="#000000" stroke-miterlimit="10" width="31.5" height="14.4"/>
	<text transform="matrix(1 0 0 1 212.1633 99.6183)" font-family="'ArialMT'" font-size="8">IF</text>
</g>
<g>
	<rect x="231.5" y="90.3" fill="#52A3DB" stroke="#000000" stroke-miterlimit="10" width="31.5" height="14.4"/>
	<text transform="matrix(1 0 0 1 243.2248 100.4194)" font-family="'ArialMT'" font-size="8">ID</text>
</g>
<g>
	<rect x="200" y="104.7" fill="#FCF8CE" stroke="#000000" stroke-miterlimit="10" width="31.5" height="14.4"/>
	<text transform="matrix(1 0 0 1 201.489 114.0021)" font-family="'ArialMT'" font-size="8">PCGEN</text>
</g>
<g>
	<rect x="231.4" y="104.7" fill="#FECB37" stroke="#000000" stroke-miterlimit="10" width="31.5" height="14.4"/>
	<text transform="matrix(1 0 0 1 243.6175 114.0018)" font-family="'ArialMT'" font-size="8">IF</text>
</g>
<g>
	<rect x="262.9" y="104.7" fill="#52A3DB" stroke="#000000" stroke-miterlimit="10" width="31.5" height="14.4"/>
	<text transform="matrix(1 0 0 1 274.679 114.803)" font-family="'ArialMT'" font-size="8">ID</text>
</g>
<g>
	<rect x="294.5" y="75.9" fill="#BDCCD4" stroke="#000000" stroke-miterlimit="10" width="31.5" height="14.4"/>
	<text transform="matrix(1 0 0 1 300.4348 85.2347)" font-family="'ArialMT'" font-size="8">CMIT</text>
</g>
<g>
	<rect x="326" y="90.3" fill="#BDCCD4" stroke="#000000" stroke-miterlimit="10" width="31.5" height="14.4"/>
	<text transform="matrix(1 0 0 1 331.9617 99.6183)" font-family="'ArialMT'" font-size="8">CMIT</text>
</g>
<g>
	<rect x="357.6" y="104.7" fill="#BDCCD4" stroke="#000000" stroke-miterlimit="10" width="31.5" height="14.4"/>
	<text transform="matrix(1 0 0 1 363.5693 114.0018)" font-family="'ArialMT'" font-size="8">CMIT</text>
</g>
<g>
	<rect x="231.4" y="75.9" fill="#7FBB48" stroke="#000000" stroke-miterlimit="10" width="31.5" height="14.4"/>
	<text transform="matrix(1 0 0 1 239.6115 85.2347)" font-family="'ArialMT'" font-size="8">EX1</text>
</g>
<g>
	<rect x="263" y="90.3" fill="#7FBB48" stroke="#000000" stroke-miterlimit="10" width="31.5" height="14.4"/>
	<text transform="matrix(1 0 0 1 271.1428 99.6183)" font-family="'ArialMT'" font-size="8">EX1</text>
</g>
<g>
	<rect x="294.5" y="104.7" fill="#7FBB48" stroke="#000000" stroke-miterlimit="10" width="31.5" height="14.4"/>
	<text transform="matrix(1 0 0 1 302.6496 114.0018)" font-family="'ArialMT'" font-size="8">EX1</text>
</g>
<g>
	<g>
		<rect x="105.7" y="150.2" fill="#FCF8CE" stroke="#000000" stroke-miterlimit="10" width="31.5" height="14.4"/>
		<text transform="matrix(1 0 0 1 107.2726 159.5001)" font-family="'ArialMT'" font-size="8">PCGEN</text>
	</g>
	<g>
		<rect x="137.2" y="150.2" fill="#FECB37" stroke="#000000" stroke-miterlimit="10" width="31.5" height="14.4"/>
		<text transform="matrix(1 0 0 1 149.4011 159.4998)" font-family="'ArialMT'" font-size="8">IF</text>
	</g>
	<g>
		<rect x="168.7" y="150.2" fill="#52A3DB" stroke="#000000" stroke-miterlimit="10" width="31.5" height="14.4"/>
		<text transform="matrix(1 0 0 1 180.4626 160.301)" font-family="'ArialMT'" font-size="8">ID</text>
	</g>
	<g>
		<rect x="200" y="150.2" fill="#7FBB48" stroke="#000000" stroke-miterlimit="10" width="31.5" height="14.4"/>
		<text transform="matrix(1 0 0 1 208.2075 159.4998)" font-family="'ArialMT'" font-size="8">EX1</text>
	</g>
	<g>
		<rect x="231.5" y="150.2" fill="#BDCCD4" stroke="#000000" stroke-miterlimit="10" width="31.5" height="14.4"/>
		<text transform="matrix(1 0 0 1 237.4995 159.4998)" font-family="'ArialMT'" font-size="8">CMIT</text>
	</g>
</g>
<g>
	<g>
		<rect x="137.2" y="164.3" fill="#FCF8CE" stroke="#000000" stroke-miterlimit="10" width="31.5" height="14.4"/>
		<text transform="matrix(1 0 0 1 138.7028 173.6433)" font-family="'ArialMT'" font-size="8">PCGEN</text>
	</g>
	<g>
		<rect x="168.6" y="164.3" fill="#FECB37" stroke="#000000" stroke-miterlimit="10" width="31.5" height="14.4"/>
		<text transform="matrix(1 0 0 1 180.8313 173.6431)" font-family="'ArialMT'" font-size="8">IF</text>
	</g>
	<g>
		<rect x="200.1" y="164.3" fill="#52A3DB" stroke="#000000" stroke-miterlimit="10" width="31.5" height="14.4"/>
		<text transform="matrix(1 0 0 1 211.8928 174.4442)" font-family="'ArialMT'" font-size="8">ID</text>
	</g>
</g>
<g>
	<rect x="168.5" y="178.7" fill="#FCF8CE" stroke="#000000" stroke-miterlimit="10" width="31.5" height="14.4"/>
	<text transform="matrix(1 0 0 1 170.0607 188.0269)" font-family="'ArialMT'" font-size="8">PCGEN</text>
</g>
<g>
	<rect x="200" y="178.7" fill="#FECB37" stroke="#000000" stroke-miterlimit="10" width="31.5" height="14.4"/>
	<text transform="matrix(1 0 0 1 212.1893 188.0266)" font-family="'ArialMT'" font-size="8">IF</text>
</g>
<g>
	<rect x="231.5" y="178.7" fill="#52A3DB" stroke="#000000" stroke-miterlimit="10" width="31.5" height="14.4"/>
	<text transform="matrix(1 0 0 1 243.2508 188.8278)" font-family="'ArialMT'" font-size="8">ID</text>
</g>
<g>
	<rect x="200" y="193.1" fill="#FCF8CE" stroke="#000000" stroke-miterlimit="10" width="31.5" height="14.4"/>
	<text transform="matrix(1 0 0 1 201.515 202.4104)" font-family="'ArialMT'" font-size="8">PCGEN</text>
</g>
<g>
	<rect x="231.4" y="193.1" fill="#FECB37" stroke="#000000" stroke-miterlimit="10" width="31.5" height="14.4"/>
	<text transform="matrix(1 0 0 1 243.6435 202.4102)" font-family="'ArialMT'" font-size="8">IF</text>
</g>
<g>
	<rect x="263" y="193.1" fill="#52A3DB" stroke="#000000" stroke-miterlimit="10" width="31.5" height="14.4"/>
	<text transform="matrix(1 0 0 1 274.705 203.2113)" font-family="'ArialMT'" font-size="8">ID</text>
</g>
<g>
	<rect x="263" y="178.7" fill="#7FBB48" stroke="#000000" stroke-miterlimit="10" width="31.5" height="14.4"/>
	<text transform="matrix(1 0 0 1 271.1688 188.0266)" font-family="'ArialMT'" font-size="8">EX1</text>
</g>
<g>
	<rect x="357.5" y="193.1" fill="#7FBB48" stroke="#000000" stroke-miterlimit="10" width="31.5" height="14.4"/>
	<text transform="matrix(1 0 0 1 365.6834 202.4102)" font-family="'ArialMT'" font-size="8">EX1</text>
</g>
<g>
	<rect x="357.2" y="164.4" fill="#BDCCD4" stroke="#000000" stroke-miterlimit="10" width="31.5" height="14.4"/>
	<text transform="matrix(1 0 0 1 363.1464 173.7635)" font-family="'ArialMT'" font-size="8">CMIT</text>
</g>
<g>
	<rect x="388.9" y="178.7" fill="#BDCCD4" stroke="#000000" stroke-miterlimit="10" width="31.5" height="14.4"/>
	<text transform="matrix(1 0 0 1 394.8749 188.0266)" font-family="'ArialMT'" font-size="8">CMIT</text>
</g>
<g>
	<rect x="420.4" y="193.1" fill="#BDCCD4" stroke="#000000" stroke-miterlimit="10" width="31.5" height="14.4"/>
	<text transform="matrix(1 0 0 1 426.3818 202.4102)" font-family="'ArialMT'" font-size="8">CMIT</text>
</g>
<g>
	<rect x="294.5" y="164.3" fill="#7FBB48" stroke="#000000" stroke-miterlimit="10" width="63" height="14.4"/>
	<text transform="matrix(1 0 0 1 318.4233 173.6433)" font-family="'ArialMT'" font-size="8">EX2</text>
</g>
<g>
	<rect x="263.2" y="246.7" fill="#7FBB48" stroke="#000000" stroke-miterlimit="10" width="31.5" height="14.4"/>
	<text transform="matrix(1 0 0 1 271.4348 256.0154)" font-family="'ArialMT'" font-size="8">EX2</text>
</g>
<g>
	<g>
		<rect x="105.8" y="232.5" fill="#FCF8CE" stroke="#000000" stroke-miterlimit="10" width="31.5" height="14.4"/>
		<text transform="matrix(1 0 0 1 107.3372 241.8721)" font-family="'ArialMT'" font-size="8">PCGEN</text>
	</g>
	<g>
		<rect x="137.3" y="232.5" fill="#FECB37" stroke="#000000" stroke-miterlimit="10" width="31.5" height="14.4"/>
		<text transform="matrix(1 0 0 1 149.4657 241.8719)" font-family="'ArialMT'" font-size="8">IF</text>
	</g>
	<g>
		<rect x="168.8" y="232.5" fill="#52A3DB" stroke="#000000" stroke-miterlimit="10" width="31.5" height="14.4"/>
		<text transform="matrix(1 0 0 1 180.5273 242.673)" font-family="'ArialMT'" font-size="8">ID</text>
	</g>
	<g>
		<rect x="200.1" y="232.5" fill="#7FBB48" stroke="#000000" stroke-miterlimit="10" width="31.5" height="14.4"/>
		<text transform="matrix(1 0 0 1 208.2721 241.8719)" font-family="'ArialMT'" font-size="8">EX1</text>
	</g>
	<g>
		<rect x="231.6" y="232.5" fill="#BDCCD4" stroke="#000000" stroke-miterlimit="10" width="31.5" height="14.4"/>
		<text transform="matrix(1 0 0 1 237.5641 241.8719)" font-family="'ArialMT'" font-size="8">CMIT</text>
	</g>
</g>
<g>
	<g>
		<rect x="137.2" y="246.7" fill="#FCF8CE" stroke="#000000" stroke-miterlimit="10" width="31.5" height="14.4"/>
		<text transform="matrix(1 0 0 1 138.7674 256.0154)" font-family="'ArialMT'" font-size="8">PCGEN</text>
	</g>
	<g>
		<rect x="168.7" y="246.7" fill="#FECB37" stroke="#000000" stroke-miterlimit="10" width="31.5" height="14.4"/>
		<text transform="matrix(1 0 0 1 180.896 256.0151)" font-family="'ArialMT'" font-size="8">IF</text>
	</g>
	<g>
		<rect x="200.2" y="246.7" fill="#52A3DB" stroke="#000000" stroke-miterlimit="10" width="31.5" height="14.4"/>
		<text transform="matrix(1 0 0 1 211.9575 256.8163)" font-family="'ArialMT'" font-size="8">ID</text>
	</g>
</g>
<g>
	<rect x="168.6" y="261.1" fill="#FCF8CE" stroke="#000000" stroke-miterlimit="10" width="31.5" height="14.4"/>
	<text transform="matrix(1 0 0 1 170.1254 270.3989)" font-family="'ArialMT'" font-size="8">PCGEN</text>
</g>
<g>
	<rect x="200.1" y="261.1" fill="#FECB37" stroke="#000000" stroke-miterlimit="10" width="31.5" height="14.4"/>
	<text transform="matrix(1 0 0 1 212.2539 270.3987)" font-family="'ArialMT'" font-size="8">IF</text>
</g>
<g>
	<rect x="231.6" y="261.1" fill="#52A3DB" stroke="#000000" stroke-miterlimit="10" width="31.5" height="14.4"/>
	<text transform="matrix(1 0 0 1 243.3154 271.1998)" font-family="'ArialMT'" font-size="8">ID</text>
</g>
<g>
	<rect x="200.1" y="275.5" fill="#FCF8CE" stroke="#000000" stroke-miterlimit="10" width="31.5" height="14.4"/>
	<text transform="matrix(1 0 0 1 201.5796 284.7825)" font-family="'ArialMT'" font-size="8">PCGEN</text>
</g>
<g>
	<rect x="231.5" y="275.5" fill="#FECB37" stroke="#000000" stroke-miterlimit="10" width="31.5" height="14.4"/>
	<text transform="matrix(1 0 0 1 243.7082 284.7823)" font-family="'ArialMT'" font-size="8">IF</text>
</g>
<g>
	<rect x="263" y="275.5" fill="#52A3DB" stroke="#000000" stroke-miterlimit="10" width="31.5" height="14.4"/>
	<text transform="matrix(1 0 0 1 274.7697 285.5834)" font-family="'ArialMT'" font-size="8">ID</text>
</g>
<g>
	<rect x="326" y="246.7" fill="#BDCCD4" stroke="#000000" stroke-miterlimit="10" width="31.5" height="14.4"/>
	<text transform="matrix(1 0 0 1 332.002 256.0151)" font-family="'ArialMT'" font-size="8">CMIT</text>
</g>
<g>
	<rect x="357.6" y="261.1" fill="#BDCCD4" stroke="#000000" stroke-miterlimit="10" width="31.5" height="14.4"/>
	<text transform="matrix(1 0 0 1 363.529 270.3987)" font-family="'ArialMT'" font-size="8">CMIT</text>
</g>
<g>
	<rect x="389.2" y="275.5" fill="#BDCCD4" stroke="#000000" stroke-miterlimit="10" width="31.5" height="14.4"/>
	<text transform="matrix(1 0 0 1 395.1366 284.7823)" font-family="'ArialMT'" font-size="8">CMIT</text>
</g>
<g>
	<rect x="231.5" y="246.7" fill="#7FBB48" stroke="#000000" stroke-miterlimit="10" width="31.5" height="14.4"/>
	<text transform="matrix(1 0 0 1 239.7021 256.0151)" font-family="'ArialMT'" font-size="8">EX1</text>
</g>
<g>
	<rect x="263" y="261.1" fill="#7FBB48" stroke="#000000" stroke-miterlimit="10" width="31.5" height="14.4"/>
	<text transform="matrix(1 0 0 1 271.2335 270.3987)" font-family="'ArialMT'" font-size="8">EX1</text>
</g>
<g>
	<rect x="325.7" y="275.5" fill="#7FBB48" stroke="#000000" stroke-miterlimit="10" width="31.5" height="14.4"/>
	<text transform="matrix(1 0 0 1 333.8546 284.7823)" font-family="'ArialMT'" font-size="8">EX1</text>
</g>
<g>
	<rect x="294.5" y="246.7" fill="#7FBB48" stroke="#000000" stroke-miterlimit="10" width="31.5" height="14.4"/>
	<text transform="matrix(1 0 0 1 302.6494 256.0154)" font-family="'ArialMT'" font-size="8">EX3</text>
</g>
</svg>
