<svg width="3242" height="1987" xmlns="http://www.w3.org/2000/svg" xmlns:xlink="http://www.w3.org/1999/xlink" xml:space="preserve" overflow="hidden"><defs><filter id="fx0" x="-10%" y="-10%" width="120%" height="120%" filterUnits="userSpaceOnUse" primitiveUnits="userSpaceOnUse"><feComponentTransfer color-interpolation-filters="sRGB"><feFuncR type="discrete" tableValues="0 0"/><feFuncG type="discrete" tableValues="0 0"/><feFuncB type="discrete" tableValues="0 0"/><feFuncA type="linear" slope="0.4" intercept="0"/></feComponentTransfer><feGaussianBlur stdDeviation="6.11111 6.11111"/></filter><filter id="fx1" x="-10%" y="-10%" width="120%" height="120%" filterUnits="userSpaceOnUse" primitiveUnits="userSpaceOnUse"><feComponentTransfer color-interpolation-filters="sRGB"><feFuncR type="discrete" tableValues="0 0"/><feFuncG type="discrete" tableValues="0 0"/><feFuncB type="discrete" tableValues="0 0"/><feFuncA type="linear" slope="0.34902" intercept="0"/></feComponentTransfer><feGaussianBlur stdDeviation="4.8119 4.8119"/></filter><filter id="fx2" x="-10%" y="-10%" width="120%" height="120%" filterUnits="userSpaceOnUse" primitiveUnits="userSpaceOnUse"><feComponentTransfer color-interpolation-filters="sRGB"><feFuncR type="discrete" tableValues="0 0"/><feFuncG type="discrete" tableValues="0 0"/><feFuncB type="discrete" tableValues="0 0"/><feFuncA type="linear" slope="0.34902" intercept="0"/></feComponentTransfer><feGaussianBlur stdDeviation="4.8119 4.8119"/></filter><filter id="fx3" x="-10%" y="-10%" width="120%" height="120%" filterUnits="userSpaceOnUse" primitiveUnits="userSpaceOnUse"><feComponentTransfer color-interpolation-filters="sRGB"><feFuncR type="discrete" tableValues="0 0"/><feFuncG type="discrete" tableValues="0 0"/><feFuncB type="discrete" tableValues="0 0"/><feFuncA type="linear" slope="0.34902" intercept="0"/></feComponentTransfer><feGaussianBlur stdDeviation="4.8119 4.8119"/></filter><filter id="fx4" x="-10%" y="-10%" width="120%" height="120%" filterUnits="userSpaceOnUse" primitiveUnits="userSpaceOnUse"><feComponentTransfer color-interpolation-filters="sRGB"><feFuncR type="discrete" tableValues="0 0"/><feFuncG type="discrete" tableValues="0 0"/><feFuncB type="discrete" tableValues="0 0"/><feFuncA type="linear" slope="0.34902" intercept="0"/></feComponentTransfer><feGaussianBlur stdDeviation="4.8119 4.8119"/></filter><filter id="fx5" x="-10%" y="-10%" width="120%" height="120%" filterUnits="userSpaceOnUse" primitiveUnits="userSpaceOnUse"><feComponentTransfer color-interpolation-filters="sRGB"><feFuncR type="discrete" tableValues="0 0"/><feFuncG type="discrete" tableValues="0 0"/><feFuncB type="discrete" tableValues="0 0"/><feFuncA type="linear" slope="0.34902" intercept="0"/></feComponentTransfer><feGaussianBlur stdDeviation="4.8119 4.8119"/></filter><filter id="fx6" x="-10%" y="-10%" width="120%" height="120%" filterUnits="userSpaceOnUse" primitiveUnits="userSpaceOnUse"><feComponentTransfer color-interpolation-filters="sRGB"><feFuncR type="discrete" tableValues="0 0"/><feFuncG type="discrete" tableValues="0 0"/><feFuncB type="discrete" tableValues="0 0"/><feFuncA type="linear" slope="0.380392" intercept="0"/></feComponentTransfer><feGaussianBlur stdDeviation="4.8119 4.8119"/></filter><filter id="fx7" x="-10%" y="-10%" width="120%" height="120%" filterUnits="userSpaceOnUse" primitiveUnits="userSpaceOnUse"><feComponentTransfer color-interpolation-filters="sRGB"><feFuncR type="discrete" tableValues="0 0"/><feFuncG type="discrete" tableValues="0 0"/><feFuncB type="discrete" tableValues="0 0"/><feFuncA type="linear" slope="0.380392" intercept="0"/></feComponentTransfer><feGaussianBlur stdDeviation="4.8119 4.8119"/></filter><filter id="fx8" x="-10%" y="-10%" width="120%" height="120%" filterUnits="userSpaceOnUse" primitiveUnits="userSpaceOnUse"><feComponentTransfer color-interpolation-filters="sRGB"><feFuncR type="discrete" tableValues="0 0"/><feFuncG type="discrete" tableValues="0 0"/><feFuncB type="discrete" tableValues="0 0"/><feFuncA type="linear" slope="0.380392" intercept="0"/></feComponentTransfer><feGaussianBlur stdDeviation="4.8119 4.8119"/></filter><filter id="fx9" x="-10%" y="-10%" width="120%" height="120%" filterUnits="userSpaceOnUse" primitiveUnits="userSpaceOnUse"><feComponentTransfer color-interpolation-filters="sRGB"><feFuncR type="discrete" tableValues="0 0"/><feFuncG type="discrete" tableValues="0 0"/><feFuncB type="discrete" tableValues="0 0"/><feFuncA type="linear" slope="0.34902" intercept="0"/></feComponentTransfer><feGaussianBlur stdDeviation="4.8119 4.8119"/></filter><filter id="fx10" x="-10%" y="-10%" width="120%" height="120%" filterUnits="userSpaceOnUse" primitiveUnits="userSpaceOnUse"><feComponentTransfer color-interpolation-filters="sRGB"><feFuncR type="discrete" tableValues="0 0"/><feFuncG type="discrete" tableValues="0 0"/><feFuncB type="discrete" tableValues="0 0"/><feFuncA type="linear" slope="0.34902" intercept="0"/></feComponentTransfer><feGaussianBlur stdDeviation="4.8119 4.8119"/></filter><filter id="fx11" x="-10%" y="-10%" width="120%" height="120%" filterUnits="userSpaceOnUse" primitiveUnits="userSpaceOnUse"><feComponentTransfer color-interpolation-filters="sRGB"><feFuncR type="discrete" tableValues="0 0"/><feFuncG type="discrete" tableValues="0 0"/><feFuncB type="discrete" tableValues="0 0"/><feFuncA type="linear" slope="0.380392" intercept="0"/></feComponentTransfer><feGaussianBlur stdDeviation="4.8119 4.8119"/></filter><clipPath id="clip12"><rect x="1127" y="329" width="3242" height="1987"/></clipPath><clipPath id="clip13"><path d="M1140.5 342.5 1140.5 2282.5 2730.5 2282.5 2730.5 342.5ZM1127 329 4369 329 4369 2316 1127 2316Z" fill-rule="evenodd" clip-rule="evenodd"/></clipPath><clipPath id="clip14"><rect x="16" y="-5" width="85" height="166"/></clipPath><clipPath id="clip15"><rect x="16" y="-5" width="85" height="187"/></clipPath><clipPath id="clip16"><rect x="16" y="-5" width="85" height="197"/></clipPath><clipPath id="clip17"><rect x="10" y="-5" width="69" height="260"/></clipPath><clipPath id="clip18"><rect x="10" y="-5" width="69" height="260"/></clipPath><clipPath id="clip19"><rect x="10" y="-5" width="69" height="260"/></clipPath><clipPath id="clip20"><rect x="37" y="16" width="1647" height="539"/></clipPath><clipPath id="clip21"><rect x="10" y="-5" width="66" height="157"/></clipPath></defs><g clip-path="url(#clip12)" transform="translate(-1127 -329)"><g clip-path="url(#clip13)"><g filter="url(#fx0)" transform="translate(1126 328)"><g><rect x="24.2228" y="24.2226" width="1590" height="1940" stroke="#172C51" stroke-width="9" stroke-linejoin="round" stroke-miterlimit="10" fill="#E8DEEA"/></g></g></g><rect x="1140.5" y="342.5" width="1590" height="1940" stroke="#172C51" stroke-width="9.16667" stroke-linejoin="round" stroke-miterlimit="10" fill="#E8DEEA"/><rect x="1728.5" y="1463.5" width="604" height="137" stroke="#172C51" stroke-width="9.16667" stroke-linejoin="round" stroke-miterlimit="10" fill="#4472C4"/><text fill="#FFFFFF" font-family="Arial,Arial_MSFontService,sans-serif" font-weight="400" font-size="64" transform="matrix(1 0 0 1 1823.95 1555)">RVFI compare</text><g filter="url(#fx1)" transform="translate(1349 542)"><g><path d="M0 7-356.22 7-349.22 0-349.22 1245.82-356.22 1238.82 299.925 1238.82 292.925 1245.82 292.925 1167.39 306.925 1167.39 306.925 1245.82C306.925 1249.69 303.791 1252.82 299.925 1252.82L-356.22 1252.82C-360.086 1252.82-363.22 1249.69-363.22 1245.82L-363.22 0C-363.22-3.86599-360.086-7-356.22-7L0-7ZM278.925 1174.39 299.925 1132.39 320.925 1174.39Z" fill="#FFC000" transform="matrix(1 -1.22465e-16 -1.22465e-16 -1 379 1268.69)"/></g></g><path d="M0 6.875-356.22 6.875-349.345 0-349.345 1245.82-356.22 1238.95 299.925 1238.95 293.05 1245.82 293.05 1166.77 306.8 1166.77 306.8 1245.82C306.8 1249.62 303.722 1252.7 299.925 1252.7L-356.22 1252.7C-360.017 1252.7-363.095 1249.62-363.095 1245.82L-363.095 0C-363.095-3.79696-360.017-6.875-356.22-6.875L0-6.875ZM279.3 1173.64 299.925 1132.39 320.55 1173.64Z" fill="#FFC000" transform="matrix(1 -1.22465e-16 -1.22465e-16 -1 1728 1802.39)"/><path d="M1728.5 1803.5 2030 1724.5 2331.5 1803.5 2030 1882.5Z" stroke="#172C51" stroke-width="9.16667" stroke-linejoin="round" stroke-miterlimit="10" fill="#4472C4" fill-rule="evenodd"/><text fill="#FFFFFF" font-family="Arial,Arial_MSFontService,sans-serif" font-weight="400" font-size="64" transform="matrix(1 0 0 1 1929.77 1826)">Equal</text><text fill="#FFFFFF" font-family="Arial,Arial_MSFontService,sans-serif" font-weight="400" font-size="64" transform="matrix(1 0 0 1 2093.62 1826)">?</text><rect x="1728.5" y="2026.5" width="603" height="137" stroke="#172C51" stroke-width="9.16667" stroke-linejoin="round" stroke-miterlimit="10" fill="#4472C4"/><text fill="#FFFFFF" font-family="Arial,Arial_MSFontService,sans-serif" font-style="italic" font-weight="700" font-size="64" transform="matrix(1 0 0 1 1767.92 2118)">Report </text><text fill="#FFFFFF" font-family="Arial,Arial_MSFontService,sans-serif" font-style="italic" font-weight="700" font-size="64" transform="matrix(1 0 0 1 1991.93 2118)">mismatch</text><g clip-path="url(#clip14)" filter="url(#fx2)" transform="translate(1971 1592)"><g><path d="M65.7456 16.3005 65.7456 78.0615C65.7456 81.9275 62.6116 85.0615 58.7456 85.0615L58.0004 85.0615 65.0004 78.0615 65.0004 104.822 51.0004 104.822 51.0004 78.0615C51.0004 74.1955 54.1344 71.0615 58.0004 71.0615L58.7456 71.0615 51.7456 78.0615 51.7456 16.3005ZM79.0004 97.8224 58.0004 139.822 37.0004 97.8224Z" fill="#FFC000"/></g></g><path d="M2036.62 1600 2036.62 1661.76C2036.62 1665.56 2033.54 1668.64 2029.75 1668.64L2029 1668.64 2035.88 1661.76 2035.88 1689.15 2022.13 1689.15 2022.13 1661.76C2022.13 1657.96 2025.2 1654.89 2029 1654.89L2029.75 1654.89 2022.87 1661.76 2022.87 1600ZM2049.63 1682.27 2029 1723.52 2008.38 1682.27Z" fill="#FFC000"/><g clip-path="url(#clip15)" filter="url(#fx3)" transform="translate(1971 1874)"><g><path d="M0-7 71.8641-7C75.7301-7 78.8641-3.86599 78.8641 0L78.8641 0.00144357 71.8641-6.99856 108.728-6.99856 108.728 7.00144 71.8641 7.00144C67.9981 7.00144 64.8641 3.86744 64.8641 0.00144357L64.8641 0 71.8641 7 0 7ZM101.728-20.9986 143.728 0.00144357 101.728 21.0014Z" fill="#FFC000" transform="matrix(1.83697e-16 1 1 -1.83697e-16 58.0004 16.3004)"/></g></g><path d="M0-6.875 71.8641-6.875C75.6611-6.875 78.7391-3.79696 78.7391 0L78.7391 0.00144357 71.8641-6.87356 109.353-6.87356 109.353 6.87644 71.8641 6.87644C68.0672 6.87644 64.9891 3.7984 64.9891 0.00144357L64.9891 0 71.8641 6.875 0 6.875ZM102.478-20.6236 143.728 0.00144357 102.478 20.6264Z" fill="#FFC000" transform="matrix(1.83697e-16 1 1 -1.83697e-16 2029 1882)"/><g filter="url(#fx4)" transform="translate(1255 455)"><g><path d="M0 7-450.313 7-443.313 0-443.313 1624.25-450.313 1617.25 301.614 1617.25 294.614 1624.25 294.614 1576.75 308.614 1576.75 308.614 1624.25C308.614 1628.11 305.48 1631.25 301.614 1631.25L-450.313 1631.25C-454.179 1631.25-457.313 1628.11-457.313 1624.25L-457.313 0C-457.313-3.86599-454.179-7-450.313-7L0-7ZM280.614 1583.75 301.614 1541.75 322.614 1583.75Z" fill="#FFC000" transform="matrix(1 -1.22465e-16 -1.22465e-16 -1 473 1647.05)"/></g></g><path d="M0 6.875-450.313 6.875-443.438 0-443.438 1624.25-450.313 1617.37 301.614 1617.37 294.739 1624.25 294.739 1576.12 308.489 1576.12 308.489 1624.25C308.489 1628.04 305.411 1631.12 301.614 1631.12L-450.313 1631.12C-454.11 1631.12-457.188 1628.04-457.188 1624.25L-457.188 0C-457.188-3.79696-454.11-6.875-450.313-6.875L0-6.875ZM280.989 1583 301.614 1541.75 322.239 1583Z" fill="#FFC000" transform="matrix(1 -1.22465e-16 -1.22465e-16 -1 1728 2093.75)"/><rect x="1595.5" y="670.5" width="865" height="535" stroke="#172C51" stroke-width="9.16667" stroke-linejoin="round" stroke-miterlimit="10" fill="#FFF2CC"/><rect x="1651.5" y="716.5" width="604" height="114" stroke="#172C51" stroke-width="4.58333" stroke-linejoin="round" stroke-miterlimit="10" fill="#F8CBAD"/><text font-family="Arial,Arial_MSFontService,sans-serif" font-weight="400" font-size="64" transform="matrix(1 0 0 1 1790.52 796)">Clock</text><text font-family="Arial,Arial_MSFontService,sans-serif" font-weight="400" font-size="64" transform="matrix(1 0 0 1 1968.69 796)">cycle</text><rect x="1716.5" y="818.5" width="604" height="135" stroke="#172C51" stroke-width="4.58333" stroke-linejoin="round" stroke-miterlimit="10" fill="#F8CBAD"/><text font-family="Arial,Arial_MSFontService,sans-serif" font-weight="700" font-size="64" transform="matrix(1 0 0 1 1985.8 870)">…</text><rect x="1766.5" y="901.5" width="604" height="157" stroke="#172C51" stroke-width="4.58333" stroke-linejoin="round" stroke-miterlimit="10" fill="#F8CBAD"/><text font-family="Arial,Arial_MSFontService,sans-serif" font-weight="400" font-size="64" transform="matrix(1 0 0 1 1856.22 1003)">Commit or </text><text font-family="Arial,Arial_MSFontService,sans-serif" font-weight="400" font-size="64" transform="matrix(1 0 0 1 2169.04 1003)">trap</text><text font-family="Arial,Arial_MSFontService,sans-serif" font-weight="400" font-size="64" transform="matrix(1 0 0 1 2311.19 746)">DUT</text><rect x="1728.5" y="1173.5" width="603" height="135" stroke="#172C51" stroke-width="9.16667" stroke-linejoin="round" stroke-miterlimit="10" fill="#4472C4"/><text fill="#FFFFFF" font-family="Arial,Arial_MSFontService,sans-serif" font-weight="400" font-size="64" transform="matrix(1 0 0 1 1824.92 1264)">RVFI </text><text fill="#FFFFFF" font-family="Arial,Arial_MSFontService,sans-serif" font-weight="400" font-size="64" transform="matrix(1 0 0 1 1988.78 1264)">interfac</text><text fill="#FFFFFF" font-family="Arial,Arial_MSFontService,sans-serif" font-weight="400" font-size="64" transform="matrix(1 0 0 1 2198.47 1264)">e</text><g clip-path="url(#clip16)" filter="url(#fx5)" transform="translate(1972 1300)"><g><path d="M64 16.2671 64.5765 136.816 50.5766 136.883 50.0002 16.334ZM78.5428 129.75 57.7439 171.849 36.5433 129.95Z" fill="#FFC000"/></g></g><path d="M2035.88 1307.97 2036.45 1429.14 2022.7 1429.21 2022.13 1308.03ZM2050.17 1422.2 2029.74 1463.55 2008.92 1422.4Z" fill="#FFC000"/><text fill="#FF0000" font-family="Arial,Arial_MSFontService,sans-serif" font-style="italic" font-weight="700" font-size="64" transform="matrix(1 0 0 1 2063.2 1952)">N</text><text fill="#FF0000" font-family="Arial,Arial_MSFontService,sans-serif" font-style="italic" font-weight="700" font-size="64" transform="matrix(1 0 0 1 2109.61 1952)">o</text><text fill="#548235" font-family="Arial,Arial_MSFontService,sans-serif" font-style="italic" font-weight="700" font-size="64" transform="matrix(1 0 0 1 1607.62 1776)">Yes</text><text font-family="Arial,Arial_MSFontService,sans-serif" font-weight="400" font-size="64" transform="matrix(1 0 0 1 2275.49 424)">SystemVerilog</text><rect x="3498.5" y="412.5" width="866" height="1682" stroke="#172C51" stroke-width="9.16667" stroke-linejoin="round" stroke-miterlimit="10" fill="#E8DEEA"/><rect x="3629.5" y="592.5" width="604" height="191" stroke="#172C51" stroke-width="9.16667" stroke-linejoin="round" stroke-miterlimit="10" fill="#4472C4"/><text fill="#FFFFFF" font-family="Arial,Arial_MSFontService,sans-serif" font-weight="400" font-size="64" transform="matrix(1 0 0 1 3712.37 711)">Inject</text><text fill="#FFFFFF" font-family="Arial,Arial_MSFontService,sans-serif" font-weight="400" font-size="64" transform="matrix(1 0 0 1 3883.1 711)">interrupts</text><rect x="3629.5" y="1397.5" width="604" height="168" stroke="#172C51" stroke-width="9.16667" stroke-linejoin="round" stroke-miterlimit="10" fill="#4472C4"/><text fill="#FFFFFF" font-family="Arial,Arial_MSFontService,sans-serif" font-weight="400" font-size="64" transform="matrix(1 0 0 1 3712.09 1505)">Step</text><text fill="#FFFFFF" font-family="Arial,Arial_MSFontService,sans-serif" font-weight="400" font-size="64" transform="matrix(1 0 0 1 3861.62 1505)">simulation</text><rect x="3629.5" y="1001.5" width="604" height="176" stroke="#172C51" stroke-width="9.16667" stroke-linejoin="round" stroke-miterlimit="10" fill="#4472C4"/><text fill="#FFFFFF" font-family="Arial,Arial_MSFontService,sans-serif" font-weight="400" font-size="64" transform="matrix(1 0 0 1 3671.41 1074)">Inject</text><text fill="#FFFFFF" font-family="Arial,Arial_MSFontService,sans-serif" font-weight="400" font-size="64" transform="matrix(1 0 0 1 3842.14 1074)">«</text><text fill="#FFFFFF" font-family="Arial,Arial_MSFontService,sans-serif" font-weight="400" font-size="64" transform="matrix(1 0 0 1 3895.42 1074)">previous</text><text fill="#FFFFFF" font-family="Arial,Arial_MSFontService,sans-serif" font-weight="400" font-size="64" transform="matrix(1 0 0 1 4154.95 1074)">» </text><text fill="#FFFFFF" font-family="Arial,Arial_MSFontService,sans-serif" font-weight="400" font-size="64" transform="matrix(1 0 0 1 3761.63 1151)">CSR values</text><rect x="3629.5" y="1783.5" width="604" height="137" stroke="#172C51" stroke-width="9.16667" stroke-linejoin="round" stroke-miterlimit="10" fill="#4472C4"/><text fill="#FFFFFF" font-family="Arial,Arial_MSFontService,sans-serif" font-weight="400" font-size="64" transform="matrix(1 0 0 1 3687.17 1875)">Emit RVFI output</text><g clip-path="url(#clip17)" filter="url(#fx6)" transform="translate(3888 775)"><g><path d="M48 15.7178 48.0003 211.116 39.0003 211.116 39 15.7178ZM57.2503 206.532 43.5004 234.032 29.7503 206.532Z" fill="#FFC000"/></g></g><path d="M3936.08 783.5 3936.08 978.898 3926.92 978.898 3926.92 783.5ZM3945.25 974.314 3931.5 1001.81 3917.75 974.315Z" fill="#FFC000"/><g clip-path="url(#clip18)" filter="url(#fx7)" transform="translate(3888 1169)"><g><path d="M4.5-7.39239e-06 4.50032 196.771-4.49968 196.771-4.5 7.39239e-06ZM13.7503 192.187 0.000360892 219.687-13.7497 192.187Z" fill="#FFC000" transform="matrix(-1 0 0 1 43.5002 15.7177)"/></g></g><path d="M4.58333-7.52929e-06 4.58366 196.771-4.58301 196.771-4.58333 7.52929e-06ZM13.7503 192.187 0.000360892 219.687-13.7497 192.187Z" fill="#FFC000" transform="matrix(-1 0 0 1 3931.5 1177.5)"/><g clip-path="url(#clip19)" filter="url(#fx8)" transform="translate(3888 1557)"><g><path d="M48 15.7178 48.0003 210.718 39.0003 210.718 39 15.7178ZM57.2503 206.134 43.5004 233.634 29.7503 206.134Z" fill="#FFC000"/></g></g><path d="M3936.08 1565.5 3936.08 1760.5 3926.92 1760.5 3926.92 1565.5ZM3945.25 1755.92 3931.5 1783.42 3917.75 1755.92Z" fill="#FFC000"/><text font-family="Arial,Arial_MSFontService,sans-serif" font-weight="400" font-size="64" transform="matrix(1 0 0 1 4207.45 490)">C+</text><text font-family="Arial,Arial_MSFontService,sans-serif" font-weight="400" font-size="64" transform="matrix(1 0 0 1 4291.09 490)">+</text><g filter="url(#fx9)" transform="translate(2315 495)"><g><path d="M0-7 648.84-7C652.706-7 655.84-3.86599 655.84 0L655.84 730.979 648.84 723.979 1599.59 723.979 1592.59 730.979 1592.59 683.479 1606.59 683.479 1606.59 730.979C1606.59 734.845 1603.45 737.979 1599.59 737.979L648.84 737.979C644.974 737.979 641.84 734.845 641.84 730.979L641.84 0 648.84 7 0 7ZM1578.59 690.479 1599.59 648.479 1620.59 690.479Z" fill="#FFC000" transform="matrix(1 0 0 -1 16 753.779)"/></g></g><path d="M0-6.875 648.84-6.875C652.637-6.875 655.715-3.79696 655.715 0L655.715 730.979 648.84 724.104 1599.59 724.104 1592.71 730.979 1592.71 682.854 1606.46 682.854 1606.46 730.979C1606.46 734.776 1603.38 737.854 1599.59 737.854L648.84 737.854C645.043 737.854 641.965 734.776 641.965 730.979L641.965 0 648.84 6.875 0 6.875ZM1578.96 689.729 1599.59 648.479 1620.21 689.729Z" fill="#FFC000" transform="matrix(1 0 0 -1 2331 1240.48)"/><g clip-path="url(#clip20)" filter="url(#fx10)" transform="translate(2274 1483)"><g><path d="M0 7-82.4987 7-75.4987 0-75.4987 950.369-82.4987 943.369 387.977 943.369C391.843 943.369 394.977 946.503 394.977 950.369L394.977 1563.84 380.977 1563.84 380.977 950.369 387.977 957.369-82.4987 957.369C-86.3647 957.369-89.4987 954.235-89.4987 950.369L-89.4987 0C-89.4987-3.86599-86.3647-7-82.4987-7L0-7ZM408.977 1556.84 387.977 1598.84 366.977 1556.84Z" fill="#FFC000" transform="matrix(-6.12323e-17 -1 -1 6.12323e-17 1656.84 445.278)"/></g></g><path d="M0 6.875-82.4987 6.875-75.6237 0-75.6237 950.369-82.4987 943.494 387.977 943.494C391.774 943.494 394.852 946.572 394.852 950.369L394.852 1564.47 381.102 1564.47 381.102 950.369 387.977 957.244-82.4987 957.244C-86.2956 957.244-89.3737 954.166-89.3737 950.369L-89.3737 0C-89.3737-3.79696-86.2956-6.875-82.4987-6.875L0-6.875ZM408.602 1557.59 387.977 1598.84 367.352 1557.59Z" fill="#FFC000" transform="matrix(-6.12323e-17 -1 -1 6.12323e-17 3930.84 1919.98)"/><text font-family="Arial,Arial_MSFontService,sans-serif" font-weight="400" font-size="64" transform="matrix(1 0 0 1 3039.15 487)">RVFI + DPI</text><text font-family="Arial,Arial_MSFontService,sans-serif" font-weight="400" font-size="64" transform="matrix(1 0 0 1 3039.15 1977)">RVFI</text><text font-family="Arial,Arial_MSFontService,sans-serif" font-weight="400" font-size="64" transform="matrix(1 0 0 1 3203 1977)">+</text><text font-family="Arial,Arial_MSFontService,sans-serif" font-weight="400" font-size="64" transform="matrix(1 0 0 1 3258 1977)">DP</text><text font-family="Arial,Arial_MSFontService,sans-serif" font-weight="400" font-size="64" transform="matrix(1 0 0 1 3347.38 1977)">I</text><g clip-path="url(#clip21)" filter="url(#fx11)" transform="translate(1986 1050)"><g><path d="M45.9992 15.6401 47.5815 107.319 38.5828 107.474 37.0005 15.7954ZM56.751 102.577 43.4776 130.31 29.2551 103.051Z"/></g></g><path d="M2032.08 1058.42 2033.66 1150.1 2024.5 1150.26 2022.92 1058.58ZM2042.75 1145.36 2029.48 1173.09 2015.26 1145.83Z"/><text font-family="Arial,Arial_MSFontService,sans-serif" font-weight="400" font-size="64" transform="matrix(1 0 0 1 2073.48 1137)">v</text><text font-family="Arial,Arial_MSFontService,sans-serif" font-weight="400" font-size="64" transform="matrix(1 0 0 1 2105.56 1137)">alid=1</text></g></svg>