<?xml version="1.0" encoding="utf-8"?>
<!-- Generator: Adobe Illustrator 16.0.4, SVG Export Plug-In . SVG Version: 6.00 Build 0)  -->
<!DOCTYPE svg PUBLIC "-//W3C//DTD SVG 1.1//EN" "http://www.w3.org/Graphics/SVG/1.1/DTD/svg11.dtd">
<svg version="1.1" id="Layer_1" xmlns="http://www.w3.org/2000/svg" xmlns:xlink="http://www.w3.org/1999/xlink" x="0px" y="0px"
	 width="101.613px" height="103.226px" viewBox="0 0 101.613 103.226" enable-background="new 0 0 101.613 103.226"
	 xml:space="preserve">
<g>
	<g>
		<path fill="#FFFEFE" d="M38.589,37.644c0.665,0.646,1.379,1.235,2.136,1.775v-1.775H38.589z"/>
		<path fill="#FFFEFE" d="M40.726,9.98c-0.136,0.096-0.268,0.197-0.398,0.298h0.398V9.98z"/>
		<path fill="#FFFEFE" d="M40.726,16.773v-5.109h-2.036c-1.196,1.143-2.226,2.446-3.072,3.878v1.231H40.726z"/>
		<path fill="#FFFEFE" d="M34.231,18.457c-0.562,1.521-0.929,3.132-1.063,4.812h1.063V18.457z"/>
		<rect x="35.617" y="24.654" fill="#FFFEFE" width="5.108" height="5.109"/>
		<path fill="#FFFEFE" d="M34.231,24.654h-1.133c0,0.016,0,0.029,0,0.046c0,1.759,0.264,3.454,0.735,5.063h0.398V24.654z"/>
		<path fill="#FFFEFE" d="M47.223,7.081c-1.824,0.407-3.54,1.095-5.111,2.01v1.188h5.111V7.081z"/>
		<path fill="#FFFEFE" d="M40.726,36.258v-5.109h-5.108v2.708c0.501,0.845,1.053,1.652,1.679,2.401H40.726z"/>
		<rect x="48.609" y="18.159" fill="#FFFEFE" width="5.108" height="5.109"/>
		<rect x="48.609" y="31.149" fill="#FFFEFE" width="5.108" height="5.109"/>
		<rect x="42.111" y="11.664" fill="#FFFEFE" width="5.111" height="5.109"/>
		<rect x="48.609" y="11.664" fill="#FFFEFE" width="5.108" height="5.109"/>
		<rect x="48.609" y="24.654" fill="#FFFEFE" width="5.108" height="5.109"/>
		<rect x="42.111" y="18.159" fill="#FFFEFE" width="5.111" height="5.109"/>
		<rect x="42.111" y="24.654" fill="#FFFEFE" width="5.111" height="5.109"/>
		<rect x="42.111" y="31.149" fill="#FFFEFE" width="5.111" height="5.109"/>
		<rect x="35.617" y="18.159" fill="#FFFEFE" width="5.108" height="5.109"/>
		<rect x="55.102" y="11.664" fill="#FFFEFE" width="5.11" height="5.109"/>
		<path fill="#FFFEFE" d="M60.212,9.09c-1.573-0.915-3.287-1.603-5.11-2.01v3.197h5.11V9.09z"/>
		<path fill="#FFFEFE" d="M42.111,37.644v2.665c1.571,0.915,3.287,1.603,5.111,2.01v-4.675H42.111z"/>
		<path fill="#FFFEFE" d="M61.597,37.644v1.775c0.756-0.54,1.472-1.129,2.137-1.775H61.597z"/>
		<path fill="#FFFEFE" d="M61.597,31.149v5.109h3.431c0.626-0.749,1.179-1.559,1.68-2.403v-2.706H61.597z"/>
		<path fill="#FFFEFE" d="M48.609,10.278h5.108v-3.44c-0.837-0.121-1.687-0.203-2.556-0.203c-0.87,0-1.716,0.082-2.552,0.203V10.278
			z"/>
		<path fill="#FFFEFE" d="M69.224,24.654h-1.131v5.109h0.396c0.471-1.609,0.737-3.305,0.737-5.063
			C69.226,24.683,69.224,24.669,69.224,24.654z"/>
		<rect x="55.102" y="31.149" fill="#FFFEFE" width="5.11" height="5.109"/>
		<rect x="55.102" y="18.159" fill="#FFFEFE" width="5.11" height="5.109"/>
		<rect x="55.102" y="24.654" fill="#FFFEFE" width="5.11" height="5.109"/>
		<path fill="#FFFEFE" d="M69.153,23.268c-0.134-1.678-0.501-3.288-1.061-4.807v4.807H69.153z"/>
		<path fill="#FFFEFE" d="M48.609,37.644v4.918c0.766,0.111,1.544,0.185,2.339,0.191h0.425c0.795-0.007,1.576-0.08,2.343-0.191
			v-4.918H48.609z"/>
		<rect x="61.597" y="18.159" fill="#FFFEFE" width="5.11" height="5.109"/>
		<path fill="#FFFEFE" d="M55.102,37.644v4.675c1.824-0.407,3.538-1.095,5.11-2.01v-2.665H55.102z"/>
		<rect x="61.597" y="24.654" fill="#FFFEFE" width="5.11" height="5.109"/>
		<path fill="#FFFEFE" d="M61.597,10.278h0.399c-0.132-0.101-0.264-0.202-0.399-0.298V10.278z"/>
		<path fill="#FFFEFE" d="M66.707,15.544c-0.847-1.432-1.879-2.738-3.073-3.881h-2.038v5.109h5.11V15.544z"/>
	</g>
	<g>
		<path fill="#FFFEFE" d="M22.625,36.258h3.841c-0.767-1.62-1.369-3.332-1.805-5.109h-2.037V36.258z"/>
		<rect x="22.625" y="57.129" fill="#FFFEFE" width="5.111" height="5.111"/>
		<rect x="22.625" y="44.139" fill="#FFFEFE" width="5.111" height="5.109"/>
		<path fill="#FFFEFE" d="M27.736,38.643c-0.196-0.325-0.371-0.664-0.553-0.999h-4.559v5.109h5.111V38.643z"/>
		<path fill="#FFFEFE" d="M22.625,29.763h1.739c-0.312-1.644-0.504-3.329-0.504-5.063c0-0.017,0.001-0.03,0.001-0.046h-1.236V29.763
			z"/>
		<path fill="#FFFEFE" d="M25.095,16.773c0.409-1.315,0.875-2.605,1.463-3.832c-1.36,0.84-2.67,1.75-3.934,2.719v1.113H25.095z"/>
		<path fill="#FFFEFE" d="M22.625,23.268h1.318c0.093-1.75,0.334-3.462,0.746-5.109h-2.064V23.268z"/>
		<rect x="22.625" y="50.634" fill="#FFFEFE" width="5.111" height="5.109"/>
		<rect x="29.122" y="57.129" fill="#FFFEFE" width="2.661" height="5.111"/>
		<path fill="#FFFEFE" d="M5.11,44.139c-0.043,0.232-0.1,0.46-0.139,0.691h3.279v-0.691H5.11z"/>
		<rect x="29.122" y="50.634" fill="#FFFEFE" width="2.661" height="5.109"/>
		<polyline fill="#FFFEFE" points="31.678,44.139 29.122,44.139 29.122,49.249 31.783,49.249 31.783,44.831 		"/>
		<path fill="#FFFEFE" d="M30.745,42.753c-0.571-0.642-1.113-1.311-1.623-2.005v2.005H30.745z"/>
		<rect x="16.13" y="44.139" fill="#FFFEFE" width="5.11" height="5.109"/>
		<rect x="9.637" y="37.644" fill="#FFFEFE" width="5.107" height="5.109"/>
		<path fill="#FFFEFE" d="M8.251,42.753v-5.109H6.813c-0.568,1.664-1.042,3.37-1.425,5.109H8.251z"/>
		<rect x="9.637" y="31.149" fill="#FFFEFE" width="5.107" height="5.109"/>
		<path fill="#FFFEFE" d="M14.744,24.654h-1.026c-1.222,1.623-2.336,3.334-3.343,5.109h4.37V24.654z"/>
		<path fill="#FFFEFE" d="M8.251,33.999c-0.325,0.744-0.635,1.497-0.924,2.26h0.924V33.999z"/>
		<rect x="9.637" y="44.139" fill="#FFFEFE" width="5.107" height="0.691"/>
		<rect x="16.13" y="57.129" fill="#FFFEFE" width="5.11" height="5.111"/>
		<rect x="16.13" y="50.634" fill="#FFFEFE" width="5.11" height="5.109"/>
		<rect x="16.13" y="24.654" fill="#FFFEFE" width="5.11" height="5.109"/>
		<path fill="#FFFEFE" d="M21.24,23.268v-5.109h-1.584c-1.238,1.124-2.415,2.314-3.526,3.566v1.543H21.24z"/>
		<rect x="16.13" y="37.644" fill="#FFFEFE" width="5.11" height="5.109"/>
		<rect x="16.13" y="31.149" fill="#FFFEFE" width="5.11" height="5.109"/>
	</g>
	<g>
		<polygon fill="#FFFEFE" points="86.192,63.626 82.651,63.626 83.873,68.734 86.192,68.734 		"/>
		<rect x="81.083" y="44.139" fill="#FFFEFE" width="5.109" height="5.109"/>
		<path fill="#FFFEFE" d="M81.083,23.268h5.109v-1.545c-1.11-1.25-2.287-2.44-3.525-3.564h-1.584V23.268z"/>
		<rect x="81.083" y="31.149" fill="#FFFEFE" width="5.109" height="5.109"/>
		<rect x="81.083" y="37.644" fill="#FFFEFE" width="5.109" height="5.109"/>
		<rect x="81.083" y="24.654" fill="#FFFEFE" width="5.109" height="5.109"/>
		<path fill="#FFFEFE" d="M84.205,70.12l0.763,3.179c0.175,0.701,0.31,1.35,0.414,1.931h0.719c0.025-0.188,0.059-0.395,0.091-0.595
			V70.12H84.205z"/>
		<path fill="#FFFEFE" d="M85.941,76.615h-0.346c0.114,0.912,0.134,1.459,0.134,1.459h0.13C85.86,78.074,85.86,77.527,85.941,76.615
			z"/>
		<polygon fill="#FFFEFE" points="87.578,55.744 90.279,55.744 91.401,50.634 87.578,50.634 		"/>
		<path fill="#FFFEFE" d="M94.073,44.831h3.279c-0.039-0.231-0.096-0.459-0.139-0.691h-3.14V44.831z"/>
		<rect x="87.578" y="37.644" fill="#FFFEFE" width="5.109" height="5.109"/>
		<rect x="87.578" y="31.149" fill="#FFFEFE" width="5.109" height="5.109"/>
		<polygon fill="#FFFEFE" points="87.578,62.241 88.857,62.241 89.977,57.129 87.578,57.129 		"/>
		<path fill="#FFFEFE" d="M87.578,29.763h4.372c-1.008-1.775-2.121-3.486-3.343-5.109h-1.028V29.763z"/>
		<polygon fill="#FFFEFE" points="79.21,49.249 79.697,49.249 79.697,44.139 74.588,44.139 74.588,44.831 78.152,44.831 		"/>
		<polygon fill="#FFFEFE" points="86.192,62.241 86.192,57.129 81.097,57.129 82.321,62.241 		"/>
		<polygon fill="#FFFEFE" points="79.542,50.634 79.697,51.283 79.697,50.634 		"/>
		<path fill="#FFFEFE" d="M70.223,44.139c-0.229,0.228-0.443,0.474-0.685,0.691h3.664v-0.691H70.223z"/>
		<polygon fill="#FFFEFE" points="87.578,63.626 87.578,68.071 88.552,63.626 		"/>
		<path fill="#FFFEFE" d="M94.073,36.258h0.924c-0.289-0.763-0.596-1.516-0.924-2.258V36.258z"/>
		<polygon fill="#FFFEFE" points="87.578,44.139 87.578,49.249 91.704,49.249 92.673,44.831 92.687,44.831 92.687,44.139 		"/>
		<path fill="#FFFEFE" d="M94.073,37.644v5.109h2.863c-0.382-1.739-0.856-3.445-1.427-5.109H94.073z"/>
		<path fill="#FFFEFE" d="M79.697,15.66c-1.263-0.969-2.571-1.879-3.933-2.719c0.587,1.227,1.054,2.517,1.463,3.832h2.469V15.66z"/>
		<path fill="#FFFEFE" d="M79.697,18.159h-2.064c0.412,1.647,0.653,3.359,0.747,5.109h1.317V18.159z"/>
		<path fill="#FFFEFE" d="M79.697,24.654h-1.236c0,0.016,0.002,0.029,0.002,0.046c0,1.734-0.191,3.42-0.503,5.063h1.736V24.654z"/>
		<path fill="#FFFEFE" d="M79.697,31.149H77.66c-0.435,1.777-1.038,3.489-1.805,5.109h3.841V31.149z"/>
		<path fill="#FFFEFE" d="M79.697,42.753v-5.109h-4.558c-0.182,0.335-0.357,0.672-0.551,0.997v4.112H79.697z"/>
		<rect x="81.083" y="50.634" fill="#FFFEFE" width="5.109" height="5.109"/>
		<path fill="#FFFEFE" d="M73.202,40.749c-0.51,0.694-1.054,1.363-1.623,2.005h1.623V40.749z"/>
	</g>
	<g>
		<polygon fill="#FFFEFE" points="61.597,62.241 64.887,62.241 66.146,57.129 61.597,57.129 		"/>
		<polygon fill="#FFFEFE" points="60.212,68.734 60.212,63.626 58.755,63.626 59.784,68.734 		"/>
		<polygon fill="#FFFEFE" points="60.212,57.129 57.447,57.129 58.478,62.241 60.212,62.241 		"/>
		<path fill="#FFFEFE" d="M68.093,46.058v3.16l0.974-3.957C68.75,45.537,68.42,45.796,68.093,46.058z"/>
		<path fill="#FFFEFE" d="M66.707,47.088c-1.159,0.811-2.376,1.536-3.655,2.16h3.655V47.088z"/>
		<polygon fill="#FFFEFE" points="61.597,68.734 63.291,68.734 64.547,63.626 61.597,63.626 		"/>
		<path fill="#FFFEFE" d="M62.95,70.12h-1.353v5.109h0.156c0.104-0.581,0.239-1.229,0.414-1.931L62.95,70.12z"/>
		<polygon fill="#FFFEFE" points="61.597,50.634 61.597,55.744 66.486,55.744 66.707,54.851 66.707,50.634 		"/>
		<polygon fill="#FFFEFE" points="60.064,70.12 60.212,70.852 60.212,70.12 		"/>
		<path fill="#FFFEFE" d="M57.169,55.744h3.043v-5.109h-0.584c-1.076,0.355-2.181,0.648-3.313,0.865L57.169,55.744z"/>
	</g>
	<g>
		<rect x="16.13" y="76.615" fill="#FFFEFE" width="5.11" height="5.109"/>
		<path fill="#FFFEFE" d="M21.24,83.11h-5.11v0.878c1.33,1.495,2.745,2.916,4.254,4.23h0.856V83.11z"/>
		<polygon fill="#FFFEFE" points="46.248,57.129 42.927,57.129 42.927,62.241 47.223,62.241 47.223,61.137 		"/>
		<rect x="22.625" y="76.615" fill="#FFFEFE" width="5.111" height="5.109"/>
		<rect x="22.625" y="83.11" fill="#FFFEFE" width="5.111" height="5.108"/>
		<path fill="#FFFEFE" d="M22.625,89.605v0.445c1.623,1.248,3.333,2.381,5.111,3.409v-3.854H22.625z"/>
		<rect x="22.625" y="72.534" fill="#FFFEFE" width="5.111" height="2.695"/>
		<path fill="#FFFEFE" d="M47.223,96.1h-5.111v2.756c1.674,0.325,3.378,0.564,5.111,0.708V96.1z"/>
		<path fill="#FFFEFE" d="M40.726,96.1h-5.108v1.003c1.663,0.585,3.368,1.079,5.108,1.475V96.1z"/>
		<path fill="#FFFEFE" d="M34.231,94.713v-4.349h-2.449v-0.76h-2.661v4.636c0.308,0.161,0.619,0.316,0.93,0.473H34.231z"/>
		<rect x="16.13" y="72.534" fill="#FFFEFE" width="5.11" height="2.695"/>
		<rect x="42.927" y="63.626" fill="#FFFEFE" width="4.295" height="5.107"/>
		<rect x="29.122" y="72.534" fill="#FFFEFE" width="2.661" height="2.695"/>
		<rect x="42.927" y="83.11" fill="#FFFEFE" width="4.295" height="5.108"/>
		<path fill="#FFFEFE" d="M44.811,51.224c-0.636-0.15-1.269-0.301-1.883-0.496v5.016h2.982L44.811,51.224z"/>
		<rect x="42.927" y="76.615" fill="#FFFEFE" width="4.295" height="5.109"/>
		<rect x="42.927" y="70.12" fill="#FFFEFE" width="4.295" height="5.109"/>
		<rect x="29.122" y="76.615" fill="#FFFEFE" width="2.661" height="5.109"/>
		<polygon fill="#FFFEFE" points="47.223,94.713 47.223,89.605 42.927,89.605 42.927,90.365 42.111,90.365 42.111,94.713 		"/>
		<rect x="29.122" y="83.11" fill="#FFFEFE" width="2.661" height="5.108"/>
		<rect x="35.617" y="90.365" fill="#FFFEFE" width="5.108" height="4.349"/>
		<path fill="#FFFEFE" d="M34.231,96.1H33.03c0.396,0.166,0.801,0.32,1.202,0.478V96.1z"/>
		<polygon fill="#FFFEFE" points="48.609,81.724 52.233,81.724 50.988,76.615 48.609,76.615 		"/>
		<rect x="48.609" y="89.605" fill="#FFFEFE" width="5.108" height="5.108"/>
		<polygon fill="#FFFEFE" points="48.609,88.218 53.717,88.218 53.717,87.821 52.57,83.11 48.609,83.11 		"/>
		<polygon fill="#FFFEFE" points="49.069,68.734 48.609,66.831 48.609,68.734 		"/>
		<path fill="#FFFEFE" d="M66.707,96.1h-5.11v2.439c1.737-0.398,3.452-0.855,5.11-1.438V96.1z"/>
		<path fill="#FFFEFE" d="M60.212,96.1h-5.11v3.477c1.735-0.143,3.433-0.409,5.11-0.739V96.1z"/>
		<path fill="#FFFEFE" d="M68.093,96.1v0.448c0.375-0.146,0.749-0.294,1.12-0.448H68.093z"/>
		<path fill="#FFFEFE" d="M53.717,96.1h-5.108v3.575c0.845,0.045,1.696,0.07,2.552,0.07c0.86,0,1.705-0.062,2.556-0.109V96.1z"/>
		<path fill="#FFFEFE" d="M79.697,89.605h-5.109v3.832c1.777-1.031,3.489-2.162,5.109-3.409V89.605z"/>
		<path fill="#FFFEFE" d="M68.093,89.605v5.108h4.115c0.33-0.166,0.667-0.323,0.994-0.496v-4.612H68.093z"/>
		<polygon fill="#FFFEFE" points="74.861,68.734 74.588,67.634 74.588,68.734 		"/>
		<polygon fill="#FFFEFE" points="79.697,88.132 78.445,83.11 74.588,83.11 74.588,88.218 79.697,88.218 		"/>
		<polygon fill="#FFFEFE" points="48.609,75.229 50.652,75.229 49.407,70.12 48.609,70.12 		"/>
		<polygon fill="#FFFEFE" points="74.588,81.724 78.099,81.724 76.827,76.615 74.588,76.615 		"/>
		<polygon fill="#FFFEFE" points="73.202,76.615 70.307,76.615 69.033,81.724 73.202,81.724 		"/>
		<polygon fill="#FFFEFE" points="74.588,70.12 74.588,75.229 76.479,75.229 75.207,70.12 		"/>
		<polygon fill="#FFFEFE" points="73.202,83.11 68.689,83.11 68.093,85.501 68.093,88.218 73.202,88.218 		"/>
		<rect x="55.102" y="90.365" fill="#FFFEFE" width="5.11" height="4.349"/>
		<polygon fill="#FFFEFE" points="73.202,70.12 71.927,70.12 70.655,75.229 73.202,75.229 		"/>
		<rect x="61.597" y="90.365" fill="#FFFEFE" width="5.11" height="4.349"/>
		<path fill="#FFFEFE" d="M73.202,64.391c-0.134,0.855-0.328,1.885-0.589,2.983l-0.339,1.359h0.928V64.391z"/>
	</g>
</g>
</svg>
