<?xml version="1.0" encoding="UTF-8" standalone="no"?>
<!-- Created with Inkscape (http://www.inkscape.org/) -->

<svg
   version="1.1"
   id="svg2"
   xml:space="preserve"
   width="483.79999"
   height="314.0636"
   viewBox="0 0 483.79999 314.0636"
   sodipodi:docname="hpdcache_highlevel_integration.svg"
   inkscape:version="1.1.2 (0a00cf5339, 2022-02-04)"
   xmlns:inkscape="http://www.inkscape.org/namespaces/inkscape"
   xmlns:sodipodi="http://sodipodi.sourceforge.net/DTD/sodipodi-0.dtd"
   xmlns="http://www.w3.org/2000/svg"
   xmlns:svg="http://www.w3.org/2000/svg"><defs
     id="defs6"><marker
       style="overflow:visible"
       id="DotM"
       refX="0"
       refY="0"
       orient="auto"
       inkscape:stockid="DotM"
       inkscape:isstock="true"><path
         transform="matrix(0.4,0,0,0.4,2.96,0.4)"
         style="fill:context-stroke;fill-rule:evenodd;stroke:context-stroke;stroke-width:1pt"
         d="m -2.5,-1 c 0,2.76 -2.24,5 -5,5 -2.76,0 -5,-2.24 -5,-5 0,-2.76 2.24,-5 5,-5 2.76,0 5,2.24 5,5 z"
         id="path7683" /></marker><marker
       style="overflow:visible"
       id="Arrow2Mend"
       refX="0"
       refY="0"
       orient="auto"
       inkscape:stockid="Arrow2Mend"
       inkscape:isstock="true"><path
         transform="scale(-0.6)"
         d="M 8.7185878,4.0337352 -2.2072895,0.01601326 8.7185884,-4.0017078 c -1.7454984,2.3720609 -1.7354408,5.6174519 -6e-7,8.035443 z"
         style="fill:context-stroke;fill-rule:evenodd;stroke:context-stroke;stroke-width:0.625;stroke-linejoin:round"
         id="path1866" /></marker></defs><sodipodi:namedview
     id="namedview4"
     pagecolor="#ffffff"
     bordercolor="#666666"
     borderopacity="1.0"
     inkscape:pageshadow="2"
     inkscape:pageopacity="0.0"
     inkscape:pagecheckerboard="0"
     showgrid="true"
     inkscape:zoom="2"
     inkscape:cx="188.5"
     inkscape:cy="221.75"
     inkscape:window-width="1920"
     inkscape:window-height="1136"
     inkscape:window-x="0"
     inkscape:window-y="27"
     inkscape:window-maximized="1"
     inkscape:current-layer="g8"
     fit-margin-top="1"
     fit-margin-left="1"
     fit-margin-right="1"
     fit-margin-bottom="1"><inkscape:grid
       type="xygrid"
       id="grid2382"
       originx="1.9"
       originy="1.9" /></sodipodi:namedview><g
     id="g8"
     inkscape:groupmode="layer"
     inkscape:label="hpdcache_highlevel_integration"
     transform="matrix(1.3333333,0,0,1.3333333,1.9,1.900014)"><rect
       style="fill:#ffe680;stroke:#aa8800;stroke-width:1.35;stroke-linecap:round;stroke-linejoin:round"
       id="rect2384"
       width="360"
       height="78.75"
       x="0"
       y="-1.0518654e-05"
       rx="5.625"
       ry="5.625" /><rect
       style="fill:#d5e5ff;stroke:#5555ff;stroke-width:1.35;stroke-linecap:round;stroke-linejoin:round"
       id="rect2634"
       width="360"
       height="129.19901"
       x="-4.2632564e-14"
       y="84.550987"
       rx="5.625"
       ry="5.625" /><path
       d="m 34.566,128.24999 h 292.5 c 6.231,0 11.25,5.015 11.25,11.25 v 44.74223 c 0,6.23 -5.019,11.25 -11.25,11.25 h -292.5 c -6.234,0 -11.25,-5.02 -11.25,-11.25 v -44.74223 c 0,-6.235 5.016,-11.25 11.25,-11.25 z"
       style="fill:#f5f5f5;fill-opacity:1;fill-rule:nonzero;stroke:#666666;stroke-width:1.125;stroke-linecap:butt;stroke-linejoin:miter;stroke-miterlimit:4;stroke-dasharray:none;stroke-opacity:1"
       id="path26"
       sodipodi:nodetypes="sssssssss" /><text
       style="font-variant:normal;font-weight:bold;font-size:9.99998px;font-family:'DejaVu Sans';-inkscape-font-specification:DejaVuSans-Bold;writing-mode:lr-tb;fill:#000000;fill-opacity:1;fill-rule:nonzero;stroke:none"
       id="text30"
       x="300.62073"
       y="104.29887"><tspan
         x="300.62073 308.98071 316.30069 324.60068 330.52066 337.26065 343.18063 350.29062"
         y="104.29887"
         sodipodi:role="line"
         id="tspan28">HPDcache</tspan></text><path
       d="m 251.316,135.74999 h 76.125 c 1.868,0 3.375,1.504 3.375,3.375 v 7.875 c 0,1.867 -1.507,3.375 -3.375,3.375 h -76.125 c -1.871,0 -3.375,-1.508 -3.375,-3.375 v -7.875 c 0,-1.871 1.504,-3.375 3.375,-3.375 z"
       style="fill:#fad9d5;fill-opacity:1;fill-rule:nonzero;stroke:#ae4132;stroke-width:1.125;stroke-linecap:butt;stroke-linejoin:miter;stroke-miterlimit:4;stroke-dasharray:none;stroke-opacity:1"
       id="path34" /><text
       style="font-variant:normal;font-weight:bold;font-size:9px;font-family:'DejaVu Sans';-inkscape-font-specification:DejaVuSans-Bold;writing-mode:lr-tb;fill:#000000;fill-opacity:1;fill-rule:nonzero;stroke:none"
       id="text42"
       x="276.53458"
       y="146.32794"><tspan
         x="276.53458 283.30258 289.78259 296.71259"
         y="146.32794"
         sodipodi:role="line"
         id="tspan36">CSRs</tspan><tspan
         x="31.882816 39.406818 45.994816 53.464817 58.79282 64.85881 70.186813 76.585815"
         y="139.00574"
         sodipodi:role="line"
         id="tspan38">HPDcache</tspan><tspan
         x="31.882816 38.479816 44.662815 49.099827"
         y="148.00574"
         sodipodi:role="line"
         id="tspan40">Core</tspan></text><text
       style="font-style:oblique;font-variant:normal;font-size:8.00002px;font-family:'DejaVu Sans';-inkscape-font-specification:DejaVuSans-Oblique;writing-mode:lr-tb;fill:#000000;fill-opacity:1;fill-rule:nonzero;stroke:none"
       id="text48"
       x="108.74785"
       y="138.24597"><tspan
         x="108.74785 113.83587 116.37187 119.65988 124.5799 129.65192 134.71593 139.63594 143.79596 146.93198"
         y="138.24597"
         sodipodi:role="line"
         id="tspan44">1 request/</tspan><tspan
         x="118.86703 123.25904 127.98705 132.37907 134.59508"
         y="146.246"
         sodipodi:role="line"
         id="tspan46">cycle</tspan></text><path
       d="m 52.941,195.19099 v -15 h 255 v 15"
       style="fill:none;stroke:#000000;stroke-width:1.125;stroke-linecap:butt;stroke-linejoin:miter;stroke-miterlimit:4;stroke-dasharray:1.125, 2.25;stroke-dashoffset:0;stroke-opacity:1"
       id="path120" /><text
       style="font-variant:normal;font-weight:bold;font-size:9px;font-family:'DejaVu Sans';-inkscape-font-specification:DejaVuSans-Bold;writing-mode:lr-tb;fill:#1a1a1a;fill-opacity:1;fill-rule:nonzero;stroke:none"
       id="text124"
       x="65.412437"
       y="190.55113"><tspan
         x="65.412437 74.367439 80.469437 89.83844 96.021439 100.45844 106.31744 109.44943 112.79743 119.19643 123.49844 129.60043 134.03743 137.95244 144.01843 149.34644"
         y="190.55113"
         sodipodi:role="line"
         id="tspan122">Memory Interface</tspan></text><path
       d="m 251.316,157.87499 h 76.125 c 1.868,0 3.375,1.504 3.375,3.375 v 8.25 c 0,1.867 -1.507,3.375 -3.375,3.375 h -76.125 c -1.871,0 -3.375,-1.508 -3.375,-3.375 v -8.25 c 0,-1.871 1.504,-3.375 3.375,-3.375 z"
       style="fill:#fad9d5;fill-opacity:1;fill-rule:nonzero;stroke:#ae4132;stroke-width:1.125;stroke-linecap:butt;stroke-linejoin:miter;stroke-miterlimit:4;stroke-dasharray:none;stroke-opacity:1"
       id="path128" /><text
       style="font-variant:normal;font-weight:bold;font-size:9px;font-family:'DejaVu Sans';-inkscape-font-specification:DejaVuSans-Bold;writing-mode:lr-tb;fill:#1a1a1a;fill-opacity:1;fill-rule:nonzero;stroke:none"
       id="text132"
       x="258.34561"
       y="168.74593"><tspan
         x="258.34561 268.11063 272.54761 275.62561 279.92761 286.02963 289.16162 296.01962"
         y="168.74593"
         sodipodi:role="line"
         id="tspan130">Write Bu</tspan></text><text
       style="font-variant:normal;font-weight:bold;font-size:9px;font-family:'DejaVu Sans';-inkscape-font-specification:DejaVuSans-Bold;writing-mode:lr-tb;fill:#1a1a1a;fill-opacity:1;fill-rule:nonzero;stroke:none"
       id="text136"
       x="302.41861"
       y="168.74593"><tspan
         x="302.41861"
         y="168.74593"
         id="tspan134">ﬀ</tspan></text><text
       style="font-variant:normal;font-weight:bold;font-size:9px;font-family:'DejaVu Sans';-inkscape-font-specification:DejaVuSans-Bold;writing-mode:lr-tb;fill:#1a1a1a;fill-opacity:1;fill-rule:nonzero;stroke:none"
       id="text140"
       x="309.70862"
       y="168.74593"><tspan
         x="309.70862 315.81061"
         y="168.74593"
         sodipodi:role="line"
         id="tspan138">er</tspan></text><path
       d="m 161.316,157.87499 h 75.75 c 1.868,0 3.375,1.504 3.375,3.375 v 7.875 c 0,1.867 -1.507,3.375 -3.375,3.375 h -75.75 c -1.871,0 -3.375,-1.508 -3.375,-3.375 v -7.875 c 0,-1.871 1.504,-3.375 3.375,-3.375 z"
       style="fill:#fad9d5;fill-opacity:1;fill-rule:nonzero;stroke:#ae4132;stroke-width:1.125;stroke-linecap:butt;stroke-linejoin:miter;stroke-miterlimit:4;stroke-dasharray:none;stroke-opacity:1"
       id="path144" /><text
       style="font-variant:normal;font-weight:bold;font-size:9px;font-family:'DejaVu Sans';-inkscape-font-specification:DejaVuSans-Bold;writing-mode:lr-tb;fill:#1a1a1a;fill-opacity:1;fill-rule:nonzero;stroke:none"
       id="text148"
       x="183.77847"
       y="168.45735"><tspan
         x="183.77847 192.73347 199.21349 206.73747"
         y="168.45735"
         sodipodi:role="line"
         id="tspan146">MSHR</tspan></text><path
       d="m 161.316,135.74999 h 75.75 c 1.868,0 3.375,1.504 3.375,3.375 v 7.875 c 0,1.867 -1.507,3.375 -3.375,3.375 h -75.75 c -1.871,0 -3.375,-1.508 -3.375,-3.375 v -7.875 c 0,-1.871 1.504,-3.375 3.375,-3.375 z"
       style="fill:#fad9d5;fill-opacity:1;fill-rule:nonzero;stroke:#ae4132;stroke-width:1.125;stroke-linecap:butt;stroke-linejoin:miter;stroke-miterlimit:4;stroke-dasharray:none;stroke-opacity:1"
       id="path152" /><text
       style="font-variant:normal;font-weight:bold;font-size:9px;font-family:'DejaVu Sans';-inkscape-font-specification:DejaVuSans-Bold;writing-mode:lr-tb;fill:#1a1a1a;fill-opacity:1;fill-rule:nonzero;stroke:none"
       id="text156"
       x="161.62125"
       y="145.57426"><tspan
         x="161.62125 169.09125 175.15726 179.45924 185.52525 188.81024 196.28024 199.35825 203.79524 209.89725 215.22525 219.52725 225.71025 230.14725"
         y="145.57426"
         sodipodi:role="line"
         id="tspan154">Data/Directory</tspan></text><path
       d="m 71.316,158.24999 h 75.75 c 1.868,0 3.375,1.504 3.375,3.375 v 7.875 c 0,1.867 -1.507,3.375 -3.375,3.375 h -75.75 c -1.871,0 -3.375,-1.508 -3.375,-3.375 v -7.875 c 0,-1.871 1.504,-3.375 3.375,-3.375 z"
       style="fill:#fad9d5;fill-opacity:1;fill-rule:nonzero;stroke:#ae4132;stroke-width:1.125;stroke-linecap:butt;stroke-linejoin:miter;stroke-miterlimit:4;stroke-dasharray:none;stroke-opacity:1"
       id="path160" /><text
       style="font-variant:normal;font-weight:bold;font-size:9px;font-family:'DejaVu Sans';-inkscape-font-specification:DejaVuSans-Bold;writing-mode:lr-tb;fill:#1a1a1a;fill-opacity:1;fill-rule:nonzero;stroke:none"
       id="text164"
       x="96.087807"
       y="168.83234"><tspan
         x="96.087807 102.61281 108.04881 115.00581"
         y="168.83234"
         sodipodi:role="line"
         id="tspan162">RTAB</tspan></text><path
       d="m 182.316,10.504 h 56.25 c 3.114,0 5.625,2.512 5.625,5.625 v 48.75 c 0,3.117 -2.511,5.625 -5.625,5.625 h -56.25 c -3.117,0 -5.625,-2.508 -5.625,-5.625 v -48.75 c 0,-3.113 2.508,-5.625 5.625,-5.625 z"
       style="fill:#e5d5ff;fill-opacity:1;fill-rule:nonzero;stroke:#aa00d4;stroke-width:1.125;stroke-linecap:butt;stroke-linejoin:miter;stroke-miterlimit:4;stroke-dasharray:none;stroke-opacity:1"
       id="path172" /><text
       style="font-variant:normal;font-weight:bold;font-size:9px;font-family:'DejaVu Sans';-inkscape-font-specification:DejaVuSans-Bold;writing-mode:lr-tb;fill:#000000;fill-opacity:1;fill-rule:nonzero;stroke:none"
       id="text180"
       x="185.37218"
       y="20.941816"><tspan
         x="185.37218 192.89618 198.96217 203.39919 209.83418 218.14117 224.20718 228.64418"
         y="20.941816"
         sodipodi:role="line"
         id="tspan174">Hardware</tspan><tspan
         x="189.61729 198.5723 204.6743 214.0433 220.2263 224.6633"
         y="29.941816"
         sodipodi:role="line"
         id="tspan176">Memory</tspan><tspan
         x="183.20787 189.79588 194.23288 200.33488 204.24988 210.35188 214.65388 219.98187 226.38087 232.48288"
         y="38.941818"
         sodipodi:role="line"
         id="tspan178">Prefetcher</tspan></text><path
       d="m 219.191,54.387 c 0,5.301 -4.296,9.597 -9.597,9.597 -5.305,0 -9.602,-4.296 -9.602,-9.597 0,-5.305 4.297,-9.602 9.602,-9.602 5.301,0 9.597,4.297 9.597,9.602 z"
       style="fill:#0055d4;fill-opacity:1;fill-rule:evenodd;stroke:none"
       id="path182" /><path
       d="m 208.895,43.105 h 2.414 c 1.324,0 2.39,0.461 2.39,1.036 v 5.132 c 0,0.571 -1.066,1.036 -2.39,1.036 h -2.414 c -1.329,0 -2.395,-0.465 -2.395,-1.036 v -5.132 c 0,-0.575 1.066,-1.036 2.395,-1.036 z"
       style="fill:#0055d4;fill-opacity:1;fill-rule:evenodd;stroke:none"
       id="path184" /><path
       d="m 220.754,57.988 c 1.41,1.41 1.41,3.68 0,5.09 -1.41,1.41 -3.68,1.41 -5.09,0 -1.41,-1.41 -1.41,-3.68 0,-5.09 1.41,-1.41 3.68,-1.41 5.09,0 z"
       style="fill:#0055d4;fill-opacity:1;fill-rule:evenodd;stroke:none"
       id="path186" /><path
       d="m 214.957,54.316 c 0,2.649 -2.152,4.801 -4.801,4.801 -2.652,0 -4.801,-2.152 -4.801,-4.801 0,-2.652 2.149,-4.8 4.801,-4.8 2.649,0 4.801,2.148 4.801,4.8 z"
       style="fill:#ffffff;fill-opacity:1;fill-rule:nonzero;stroke:none"
       id="path188" /><path
       d="m 219.664,56.898 2.18,2.18 c 0.808,0.805 0.808,2.106 0,2.91 l -2.18,2.18 c -0.805,0.809 -2.105,0.809 -2.91,0 l -2.18,-2.18 c -0.808,-0.804 -0.808,-2.105 0,-2.91 l 2.18,-2.18 c 0.805,-0.808 2.105,-0.808 2.91,0 z"
       style="fill:#0055d4;fill-opacity:1;fill-rule:evenodd;stroke:none"
       id="path190" /><path
       d="m 204.125,56.898 2.184,2.18 c 0.804,0.805 0.804,2.106 0,2.91 l -2.184,2.18 c -0.805,0.809 -2.102,0.809 -2.91,0 l -2.18,-2.18 c -0.805,-0.804 -0.805,-2.105 0,-2.91 l 2.18,-2.18 c 0.808,-0.808 2.105,-0.808 2.91,0 z"
       style="fill:#0055d4;fill-opacity:1;fill-rule:evenodd;stroke:none"
       id="path192" /><path
       d="m 219.664,45.27 2.18,2.179 c 0.808,0.805 0.808,2.106 0,2.91 l -2.18,2.18 c -0.805,0.809 -2.105,0.809 -2.91,0 l -2.18,-2.18 c -0.808,-0.804 -0.808,-2.105 0,-2.91 l 2.18,-2.179 c 0.805,-0.809 2.105,-0.809 2.91,0 z"
       style="fill:#0055d4;fill-opacity:1;fill-rule:evenodd;stroke:none"
       id="path194" /><path
       d="m 204.125,45.27 2.184,2.179 c 0.804,0.805 0.804,2.106 0,2.91 l -2.184,2.18 c -0.805,0.809 -2.102,0.809 -2.91,0 l -2.18,-2.18 c -0.805,-0.804 -0.805,-2.105 0,-2.91 l 2.18,-2.179 c 0.808,-0.809 2.105,-0.809 2.91,0 z"
       style="fill:#0055d4;fill-opacity:1;fill-rule:evenodd;stroke:none"
       id="path196" /><path
       d="m 208.895,58.984 h 2.414 c 1.324,0 2.39,0.461 2.39,1.036 v 5.128 c 0,0.575 -1.066,1.036 -2.39,1.036 h -2.414 c -1.329,0 -2.395,-0.461 -2.395,-1.036 V 60.02 c 0,-0.575 1.066,-1.036 2.395,-1.036 z"
       style="fill:#0055d4;fill-opacity:1;fill-rule:evenodd;stroke:none"
       id="path198" /><path
       d="m 103.566,10.504 h 56.25 c 3.114,0 5.625,2.512 5.625,5.625 v 48.75 c 0,3.117 -2.511,5.625 -5.625,5.625 h -56.25 c -3.117,0 -5.625,-2.508 -5.625,-5.625 v -48.75 c 0,-3.113 2.508,-5.625 5.625,-5.625 z"
       style="fill:#d5e5ff;fill-opacity:1;fill-rule:nonzero;stroke:#3737c8;stroke-width:1.125;stroke-linecap:butt;stroke-linejoin:miter;stroke-miterlimit:4;stroke-dasharray:none;stroke-opacity:1"
       id="path202" /><path
       d="m 140.441,54.387 c 0,5.301 -4.296,9.597 -9.597,9.597 -5.305,0 -9.602,-4.296 -9.602,-9.597 0,-5.305 4.297,-9.602 9.602,-9.602 5.301,0 9.597,4.297 9.597,9.602 z"
       style="fill:#0055d4;fill-opacity:1;fill-rule:evenodd;stroke:none"
       id="path204" /><path
       d="m 130.145,43.105 h 2.414 c 1.324,0 2.39,0.461 2.39,1.036 v 5.132 c 0,0.571 -1.066,1.036 -2.39,1.036 h -2.414 c -1.329,0 -2.395,-0.465 -2.395,-1.036 v -5.132 c 0,-0.575 1.066,-1.036 2.395,-1.036 z"
       style="fill:#0055d4;fill-opacity:1;fill-rule:evenodd;stroke:none"
       id="path206" /><path
       d="m 142.004,57.988 c 1.41,1.41 1.41,3.68 0,5.09 -1.41,1.41 -3.68,1.41 -5.09,0 -1.41,-1.41 -1.41,-3.68 0,-5.09 1.41,-1.41 3.68,-1.41 5.09,0 z"
       style="fill:#0055d4;fill-opacity:1;fill-rule:evenodd;stroke:none"
       id="path208" /><path
       d="m 136.207,54.316 c 0,2.649 -2.152,4.801 -4.801,4.801 -2.652,0 -4.801,-2.152 -4.801,-4.801 0,-2.652 2.149,-4.8 4.801,-4.8 2.649,0 4.801,2.148 4.801,4.8 z"
       style="fill:#ffffff;fill-opacity:1;fill-rule:nonzero;stroke:none"
       id="path210" /><path
       d="m 140.914,56.898 2.18,2.18 c 0.808,0.805 0.808,2.106 0,2.91 l -2.18,2.18 c -0.805,0.809 -2.105,0.809 -2.91,0 l -2.18,-2.18 c -0.808,-0.804 -0.808,-2.105 0,-2.91 l 2.18,-2.18 c 0.805,-0.808 2.105,-0.808 2.91,0 z"
       style="fill:#0055d4;fill-opacity:1;fill-rule:evenodd;stroke:none"
       id="path212" /><path
       d="m 125.375,56.898 2.184,2.18 c 0.804,0.805 0.804,2.106 0,2.91 l -2.184,2.18 c -0.805,0.809 -2.102,0.809 -2.91,0 l -2.18,-2.18 c -0.805,-0.804 -0.805,-2.105 0,-2.91 l 2.18,-2.18 c 0.808,-0.808 2.105,-0.808 2.91,0 z"
       style="fill:#0055d4;fill-opacity:1;fill-rule:evenodd;stroke:none"
       id="path214" /><path
       d="m 140.914,45.27 2.18,2.179 c 0.808,0.805 0.808,2.106 0,2.91 l -2.18,2.18 c -0.805,0.809 -2.105,0.809 -2.91,0 l -2.18,-2.18 c -0.808,-0.804 -0.808,-2.105 0,-2.91 l 2.18,-2.179 c 0.805,-0.809 2.105,-0.809 2.91,0 z"
       style="fill:#0055d4;fill-opacity:1;fill-rule:evenodd;stroke:none"
       id="path216" /><path
       d="m 125.375,45.27 2.184,2.179 c 0.804,0.805 0.804,2.106 0,2.91 l -2.184,2.18 c -0.805,0.809 -2.102,0.809 -2.91,0 l -2.18,-2.18 c -0.805,-0.804 -0.805,-2.105 0,-2.91 l 2.18,-2.179 c 0.808,-0.809 2.105,-0.809 2.91,0 z"
       style="fill:#0055d4;fill-opacity:1;fill-rule:evenodd;stroke:none"
       id="path218" /><path
       d="m 130.145,58.984 h 2.414 c 1.324,0 2.39,0.461 2.39,1.036 v 5.128 c 0,0.575 -1.066,1.036 -2.39,1.036 h -2.414 c -1.329,0 -2.395,-0.461 -2.395,-1.036 V 60.02 c 0,-0.575 1.066,-1.036 2.395,-1.036 z"
       style="fill:#0055d4;fill-opacity:1;fill-rule:evenodd;stroke:none"
       id="path220" /><text
       style="font-variant:normal;font-weight:bold;font-size:9px;font-family:'DejaVu Sans';-inkscape-font-specification:DejaVuSans-Bold;writing-mode:lr-tb;fill:#000000;fill-opacity:1;fill-rule:nonzero;stroke:none"
       id="text228"
       x="102.44331"
       y="21.862288"><tspan
         x="102.44331 109.40031 114.72831 120.05631 126.15831 129.23631 135.33832 139.77531 145.84131 150.14331 156.32631"
         y="21.862288"
         sodipodi:role="line"
         id="tspan222">Accelerator</tspan><tspan
         x="104.00996 109.74296 115.92596 121.99196 128.42696 131.71196 138.19196 142.49396 148.67696 153.11395"
         y="30.862288"
         sodipodi:role="line"
         id="tspan224">Load/Store</tspan><tspan
         x="121.07392 128.38193 134.78093 137.85892"
         y="39.862289"
         sodipodi:role="line"
         id="tspan226">Unit</tspan></text><path
       d="m 24.074,10.504 h 56.25 c 3.117,0 5.625,2.512 5.625,5.625 v 48.75 c 0,3.117 -2.508,5.625 -5.625,5.625 h -56.25 c -3.117,0 -5.625,-2.508 -5.625,-5.625 v -48.75 c 0,-3.113 2.508,-5.625 5.625,-5.625 z"
       style="fill:#d5e5ff;fill-opacity:1;fill-rule:nonzero;stroke:#3737c8;stroke-width:1.125;stroke-linecap:butt;stroke-linejoin:miter;stroke-miterlimit:4;stroke-dasharray:none;stroke-opacity:1"
       id="path232" /><path
       d="m 60.949,54.387 c 0,5.301 -4.297,9.597 -9.597,9.597 -5.305,0 -9.602,-4.296 -9.602,-9.597 0,-5.305 4.297,-9.602 9.602,-9.602 5.3,0 9.597,4.297 9.597,9.602 z"
       style="fill:#0055d4;fill-opacity:1;fill-rule:evenodd;stroke:none"
       id="path234" /><path
       d="m 50.652,43.105 h 2.414 c 1.325,0 2.391,0.461 2.391,1.036 v 5.132 c 0,0.571 -1.066,1.036 -2.391,1.036 h -2.414 c -1.328,0 -2.394,-0.465 -2.394,-1.036 v -5.132 c 0,-0.575 1.066,-1.036 2.394,-1.036 z"
       style="fill:#0055d4;fill-opacity:1;fill-rule:evenodd;stroke:none"
       id="path236" /><path
       d="m 62.512,57.988 c 1.41,1.41 1.41,3.68 0,5.09 -1.41,1.41 -3.68,1.41 -5.09,0 -1.41,-1.41 -1.41,-3.68 0,-5.09 1.41,-1.41 3.68,-1.41 5.09,0 z"
       style="fill:#0055d4;fill-opacity:1;fill-rule:evenodd;stroke:none"
       id="path238" /><path
       d="m 56.715,54.316 c 0,2.649 -2.149,4.801 -4.801,4.801 -2.652,0 -4.801,-2.152 -4.801,-4.801 0,-2.652 2.149,-4.8 4.801,-4.8 2.652,0 4.801,2.148 4.801,4.8 z"
       style="fill:#ffffff;fill-opacity:1;fill-rule:nonzero;stroke:none"
       id="path240" /><path
       d="m 61.422,56.898 2.183,2.18 c 0.805,0.805 0.805,2.106 0,2.91 l -2.183,2.18 c -0.805,0.809 -2.102,0.809 -2.91,0 l -2.18,-2.18 c -0.809,-0.804 -0.809,-2.105 0,-2.91 l 2.18,-2.18 c 0.808,-0.808 2.105,-0.808 2.91,0 z"
       style="fill:#0055d4;fill-opacity:1;fill-rule:evenodd;stroke:none"
       id="path242" /><path
       d="m 45.883,56.898 2.183,2.18 c 0.805,0.805 0.805,2.106 0,2.91 l -2.183,2.18 c -0.805,0.809 -2.102,0.809 -2.91,0 l -2.18,-2.18 c -0.805,-0.804 -0.805,-2.105 0,-2.91 l 2.18,-2.18 c 0.808,-0.808 2.105,-0.808 2.91,0 z"
       style="fill:#0055d4;fill-opacity:1;fill-rule:evenodd;stroke:none"
       id="path244" /><path
       d="m 61.422,45.27 2.183,2.179 c 0.805,0.805 0.805,2.106 0,2.91 l -2.183,2.18 c -0.805,0.809 -2.102,0.809 -2.91,0 l -2.18,-2.18 c -0.809,-0.804 -0.809,-2.105 0,-2.91 l 2.18,-2.179 c 0.808,-0.809 2.105,-0.809 2.91,0 z"
       style="fill:#0055d4;fill-opacity:1;fill-rule:evenodd;stroke:none"
       id="path246" /><path
       d="m 45.883,45.27 2.183,2.179 c 0.805,0.805 0.805,2.106 0,2.91 l -2.183,2.18 c -0.805,0.809 -2.102,0.809 -2.91,0 l -2.18,-2.18 c -0.805,-0.804 -0.805,-2.105 0,-2.91 l 2.18,-2.179 c 0.808,-0.809 2.105,-0.809 2.91,0 z"
       style="fill:#0055d4;fill-opacity:1;fill-rule:evenodd;stroke:none"
       id="path248" /><path
       d="m 50.652,58.984 h 2.414 c 1.325,0 2.391,0.461 2.391,1.036 v 5.128 c 0,0.575 -1.066,1.036 -2.391,1.036 h -2.414 c -1.328,0 -2.394,-0.461 -2.394,-1.036 V 60.02 c 0,-0.575 1.066,-1.036 2.394,-1.036 z"
       style="fill:#0055d4;fill-opacity:1;fill-rule:evenodd;stroke:none"
       id="path250" /><text
       style="font-variant:normal;font-weight:bold;font-size:9px;font-family:'DejaVu Sans';-inkscape-font-specification:DejaVuSans-Bold;writing-mode:lr-tb;fill:#000000;fill-opacity:1;fill-rule:nonzero;stroke:none"
       id="text258"
       x="41.672325"
       y="21.862288"><tspan
         x="41.672325 48.269325 54.452328 58.889324"
         y="21.862288"
         sodipodi:role="line"
         id="tspan252">Core</tspan><tspan
         x="25.722374 31.455374 37.638374 43.704372 50.139374 53.424374 59.904373 64.206375 70.389374 74.82637"
         y="30.862288"
         sodipodi:role="line"
         id="tspan254">Load/Store</tspan><tspan
         x="42.786339 50.094337 56.493336 59.571339"
         y="39.862289"
         sodipodi:role="line"
         id="tspan256">Unit</tspan></text><path
       d="M 22.500001,90.749992 30.996,113.24999 h 252.887 l 8.61701,-22.499998 z"
       style="fill:#fff6d5;fill-opacity:1;fill-rule:nonzero;stroke:#d4aa00;stroke-width:1.35;stroke-linecap:round;stroke-linejoin:round;stroke-miterlimit:4;stroke-dasharray:none;stroke-opacity:1"
       id="path262"
       sodipodi:nodetypes="ccccc" /><text
       transform="scale(1.0363755,0.96490123)"
       style="font-variant:normal;font-weight:bold;font-size:9.32737px;font-family:'DejaVu Sans';-inkscape-font-specification:DejaVuSans-Bold;writing-mode:lr-tb;fill:#000000;fill-opacity:1;fill-rule:nonzero;stroke:none;stroke-width:0.964901"
       id="text266"
       x="140.60246"
       y="110.54145"><tspan
         x="140.60246 147.81253 152.41092 159.08 162.26996 166.72844 173.05241"
         y="110.54145"
         sodipodi:role="line"
         id="tspan264"
         style="stroke-width:0.964901">Arbiter</tspan></text><path
       d="m 276.02,39.363 c 0,1.328 -1.079,2.403 -2.403,2.403 -1.324,0 -2.398,-1.075 -2.398,-2.403 0,-1.324 1.074,-2.398 2.398,-2.398 1.324,0 2.403,1.074 2.403,2.398 z"
       style="fill:#000000;fill-opacity:1;fill-rule:nonzero;stroke:none"
       id="path268" /><path
       d="m 284.148,39.363 c 0,1.328 -1.074,2.403 -2.398,2.403 -1.324,0 -2.398,-1.075 -2.398,-2.403 0,-1.324 1.074,-2.398 2.398,-2.398 1.324,0 2.398,1.074 2.398,2.398 z"
       style="fill:#000000;fill-opacity:1;fill-rule:nonzero;stroke:none"
       id="path270" /><path
       d="m 291.754,39.461 c 0,1.328 -1.074,2.402 -2.399,2.402 -1.324,0 -2.398,-1.074 -2.398,-2.402 0,-1.324 1.074,-2.399 2.398,-2.399 1.325,0 2.399,1.075 2.399,2.399 z"
       style="fill:#000000;fill-opacity:1;fill-rule:nonzero;stroke:none"
       id="path272" /><path
       d="m 241.316,97.499992 c 0,1.059 -0.859,1.918 -1.921,1.918 -1.059,0 -1.918,-0.859 -1.918,-1.918 0,-1.062 0.859,-1.922 1.918,-1.922 1.062,0 1.921,0.86 1.921,1.922 z"
       style="fill:#000000;fill-opacity:1;fill-rule:nonzero;stroke:none"
       id="path310" /><path
       d="m 247.82,97.499992 c 0,1.059 -0.859,1.918 -1.918,1.918 -1.062,0 -1.922,-0.859 -1.922,-1.918 0,-1.062 0.86,-1.922 1.922,-1.922 1.059,0 1.918,0.86 1.918,1.922 z"
       style="fill:#000000;fill-opacity:1;fill-rule:nonzero;stroke:none"
       id="path312" /><path
       d="m 253.906,97.577992 c 0,1.059 -0.859,1.918 -1.922,1.918 -1.058,0 -1.918,-0.859 -1.918,-1.918 0,-1.062 0.86,-1.922 1.918,-1.922 1.063,0 1.922,0.86 1.922,1.922 z"
       style="fill:#000000;fill-opacity:1;fill-rule:nonzero;stroke:none"
       id="path314" /><text
       style="font-variant:normal;font-weight:bold;font-size:9.99998px;font-family:'DejaVu Sans';-inkscape-font-specification:DejaVuSans-Bold;writing-mode:lr-tb;fill:#000000;fill-opacity:1;fill-rule:nonzero;stroke:none"
       id="text318"
       x="290.36685"
       y="11.823754"><tspan
         x="290.36685 298.06683 301.7868 308.98679 316.54678 319.96677 327.69675 331.17673 338.50671 345.37671 350.3067"
         y="11.823754"
         sodipodi:role="line"
         id="tspan316">RISC-V Core</tspan></text><path
       style="fill:none;stroke:#000000;stroke-width:1.125;stroke-linecap:butt;stroke-linejoin:miter;stroke-miterlimit:4;stroke-dasharray:none;stroke-opacity:1;marker-start:url(#DotM);marker-end:url(#Arrow2Mend)"
       d="M 210.00001,71.249991 V 89.999992"
       id="path2830"
       sodipodi:nodetypes="cc" /><path
       style="fill:none;stroke:#000000;stroke-width:1.125;stroke-linecap:butt;stroke-linejoin:miter;stroke-miterlimit:4;stroke-dasharray:none;stroke-opacity:1;marker-start:url(#DotM);marker-end:url(#Arrow2Mend)"
       d="M 131.25,71.249991 V 89.999992"
       id="path2912"
       sodipodi:nodetypes="cc" /><path
       style="fill:none;stroke:#000000;stroke-width:1.125;stroke-linecap:butt;stroke-linejoin:miter;stroke-miterlimit:4;stroke-dasharray:none;stroke-opacity:1;marker-start:url(#DotM);marker-end:url(#Arrow2Mend)"
       d="M 52.500001,71.249991 V 89.999992"
       id="path2914"
       sodipodi:nodetypes="cc" /><path
       style="fill:none;stroke:#000000;stroke-width:1.125;stroke-linecap:butt;stroke-linejoin:miter;stroke-miterlimit:4;stroke-dasharray:3.375, 3.375;stroke-dashoffset:0;stroke-opacity:1;marker-end:url(#Arrow2Mend)"
       d="M 277.50001,71.249991 V 89.999992"
       id="path2916"
       sodipodi:nodetypes="cc" /><path
       style="fill:none;stroke:#000000;stroke-width:1.125;stroke-linecap:butt;stroke-linejoin:miter;stroke-miterlimit:4;stroke-dasharray:none;stroke-opacity:1;marker-start:url(#DotM);marker-end:url(#Arrow2Mend)"
       d="m 127.5,113.24999 v 14.441"
       id="path3232"
       sodipodi:nodetypes="cc" /><text
       xml:space="preserve"
       style="font-style:normal;font-weight:normal;font-size:8px;line-height:1.25;font-family:sans-serif;fill:#000000;fill-opacity:1;stroke:none;stroke-width:0.75"
       x="136.06985"
       y="123.54533"
       id="text16300"><tspan
         sodipodi:role="line"
         id="tspan16298"
         style="font-style:italic;font-variant:normal;font-weight:normal;font-stretch:normal;font-size:8px;font-family:sans-serif;-inkscape-font-specification:'sans-serif Italic';stroke-width:0.75"
         x="136.06985"
         y="123.54533">up to 64 bytes/cycle</tspan></text><text
       xml:space="preserve"
       style="font-style:normal;font-weight:normal;font-size:8px;line-height:1.25;font-family:sans-serif;fill:#000000;fill-opacity:1;stroke:none;stroke-width:0.75"
       x="173.02132"
       y="189.62312"
       id="text27518"><tspan
         sodipodi:role="line"
         id="tspan27516"
         style="font-style:italic;font-variant:normal;font-weight:normal;font-stretch:normal;font-size:8px;font-family:sans-serif;-inkscape-font-specification:'sans-serif Italic';stroke-width:0.75"
         x="173.02132"
         y="189.62312">up to 64 bytes/channel/cycle</tspan></text><path
       style="fill:none;stroke:#000000;stroke-width:1.125;stroke-linecap:butt;stroke-linejoin:miter;stroke-miterlimit:4;stroke-dasharray:none;stroke-opacity:1;marker-start:url(#DotM);marker-end:url(#Arrow2Mend)"
       d="m 146.25,195.191 v 22.5"
       id="path41253"
       sodipodi:nodetypes="cc" /><path
       style="fill:none;stroke:#000000;stroke-width:1.125;stroke-linecap:butt;stroke-linejoin:miter;stroke-miterlimit:4;stroke-dasharray:none;stroke-opacity:1;marker-start:url(#DotM);marker-end:url(#Arrow2Mend)"
       d="m 236.25001,195.191 v 22.5"
       id="path41255"
       sodipodi:nodetypes="cc" /><text
       xml:space="preserve"
       style="font-style:normal;font-weight:normal;font-size:8px;line-height:1.25;font-family:sans-serif;fill:#000000;fill-opacity:1;stroke:none;stroke-width:0.75"
       x="50.311012"
       y="99.390099"
       id="text5614"><tspan
         sodipodi:role="line"
         id="tspan5612"
         style="font-size:8px;stroke-width:0.75"
         x="50.311012"
         y="99.390099">0</tspan></text><text
       xml:space="preserve"
       style="font-style:normal;font-weight:normal;font-size:8px;line-height:1.25;font-family:sans-serif;fill:#000000;fill-opacity:1;stroke:none;stroke-width:0.75"
       x="128.54736"
       y="99.390099"
       id="text6952"><tspan
         sodipodi:role="line"
         id="tspan6950"
         style="font-size:8px;stroke-width:0.75"
         x="128.54736"
         y="99.390099">1</tspan></text><text
       xml:space="preserve"
       style="font-style:normal;font-weight:normal;font-size:8px;line-height:1.25;font-family:sans-serif;fill:#000000;fill-opacity:1;stroke:none;stroke-width:0.75"
       x="207.10042"
       y="99.390099"
       id="text7058"><tspan
         sodipodi:role="line"
         id="tspan7056"
         style="font-size:8px;stroke-width:0.75"
         x="207.10042"
         y="99.390099">2</tspan></text><text
       xml:space="preserve"
       style="font-style:normal;font-weight:normal;font-size:8px;line-height:1.25;font-family:sans-serif;fill:#000000;fill-opacity:1;stroke:none;stroke-width:0.75"
       x="270.95874"
       y="99.390099"
       id="text7164"><tspan
         sodipodi:role="line"
         id="tspan7162"
         style="font-size:8px;stroke-width:0.75"
         x="270.95874"
         y="99.390099">N-1</tspan></text><text
       style="font-variant:normal;font-weight:bold;font-size:8.00002px;font-family:'DejaVu Sans';-inkscape-font-specification:DejaVuSans-Bold;writing-mode:lr-tb;fill:#000000;fill-opacity:1;fill-rule:nonzero;stroke:none"
       id="text17897"
       x="91.995644"
       y="211.29713"><tspan
         sodipodi:role="line"
         id="tspan17895"
         x="91.995644"
         y="211.29713" /></text><text
       xml:space="preserve"
       style="font-style:normal;font-weight:normal;font-size:8px;line-height:1.25;font-family:sans-serif;fill:#000000;fill-opacity:1;stroke:none;stroke-width:0.75"
       x="140.79407"
       y="210.94322"
       id="text20164"><tspan
         sodipodi:role="line"
         id="tspan20162"
         style="font-style:normal;font-variant:normal;font-weight:bold;font-stretch:normal;font-size:8px;font-family:'DejaVu Sans';-inkscape-font-specification:'DejaVu Sans Bold';text-align:end;text-anchor:end;stroke-width:0.75"
         x="140.79407"
         y="210.94322">Read</tspan><tspan
         sodipodi:role="line"
         style="font-style:normal;font-variant:normal;font-weight:bold;font-stretch:normal;font-size:8px;font-family:'DejaVu Sans';-inkscape-font-specification:'DejaVu Sans Bold';text-align:end;text-anchor:end;stroke-width:0.75"
         x="140.79407"
         y="220.94322"
         id="tspan20166">Request</tspan></text><text
       xml:space="preserve"
       style="font-style:normal;font-weight:normal;font-size:8px;line-height:1.25;font-family:sans-serif;fill:#000000;fill-opacity:1;stroke:none;stroke-width:0.75"
       x="227.94183"
       y="210.94322"
       id="text37092"><tspan
         sodipodi:role="line"
         id="tspan37088"
         style="font-style:normal;font-variant:normal;font-weight:bold;font-stretch:normal;font-size:8px;font-family:'DejaVu Sans';-inkscape-font-specification:'DejaVu Sans Bold';text-align:end;text-anchor:end;stroke-width:0.75"
         x="227.94183"
         y="210.94322">Write/AMO</tspan><tspan
         sodipodi:role="line"
         style="font-style:normal;font-variant:normal;font-weight:bold;font-stretch:normal;font-size:8px;font-family:'DejaVu Sans';-inkscape-font-specification:'DejaVu Sans Bold';text-align:end;text-anchor:end;stroke-width:0.75"
         x="227.94183"
         y="220.94322"
         id="tspan37090">Request</tspan></text></g></svg>
